<svg width="48" height="48" viewBox="0 0 48 48" fill="none" xmlns="http://www.w3.org/2000/svg">
<rect width="48" height="48" rx="24" fill="#0268FB"/>
<path d="M33.1667 28.9335C33.4509 29.2177 33.495 29.4844 33.4636 29.6493C33.4326 29.8118 33.3212 29.9391 33.1345 29.9833L31.4851 30.3729L31.4822 30.3739C30.9398 30.5058 30.4943 30.9235 30.3708 31.494L30.0232 32.954C29.9264 33.3615 29.4138 33.4777 29.1531 33.1679L29.1472 33.162L26.158 29.7225C28.0283 29.2659 29.7085 28.2196 30.9451 26.7294V26.7284C30.9481 26.7248 30.9508 26.722 30.9529 26.7206L33.1667 28.9335ZM26.1521 29.7235L26.1511 29.7255L26.1501 29.7245L26.1521 29.7235Z" fill="white" stroke="white"/>
<path d="M14.7 30.47L16.35 30.86C16.72 30.95 17.01 31.23 17.09 31.6L17.44 33.07C17.63 33.87 18.65 34.12 19.18 33.49L22.17 30.05C22.41 29.77 22.28 29.33 21.92 29.24C20.15 28.81 18.56 27.82 17.39 26.41C17.2 26.18 16.86 26.15 16.65 26.36L14.43 28.58C13.67 29.34 13.94 30.29 14.7 30.47Z" fill="white"/>
<path d="M24 14C20.13 14 17 17.13 17 21C17 22.45 17.43 23.78 18.17 24.89C19.25 26.49 20.96 27.62 22.95 27.91C23.29 27.97 23.64 28 24 28C24.36 28 24.71 27.97 25.05 27.91C27.04 27.62 28.75 26.49 29.83 24.89C30.57 23.78 31 22.45 31 21C31 17.13 27.87 14 24 14ZM27.06 20.78L26.23 21.61C26.09 21.75 26.01 22.02 26.06 22.22L26.3 23.25C26.49 24.06 26.06 24.38 25.34 23.95L24.34 23.36C24.16 23.25 23.86 23.25 23.68 23.36L22.68 23.95C21.96 24.37 21.53 24.06 21.72 23.25L21.96 22.22C22 22.03 21.93 21.75 21.79 21.61L20.94 20.78C20.45 20.29 20.61 19.8 21.29 19.69L22.36 19.51C22.54 19.48 22.75 19.32 22.83 19.16L23.42 17.98C23.74 17.34 24.26 17.34 24.58 17.98L25.17 19.16C25.25 19.32 25.46 19.48 25.65 19.51L26.72 19.69C27.39 19.8 27.55 20.29 27.06 20.78Z" fill="white"/>
</svg>
