<svg width="24" height="25" viewBox="0 0 24 25" fill="none" xmlns="http://www.w3.org/2000/svg">
<path d="M22 19.5V22.5H2V19.5C2 18.95 2.45 18.5 3 18.5H21C21.55 18.5 22 18.95 22 19.5Z" fill="#757C98"/>
<path d="M7 11.5H5V18.5H7V11.5Z" fill="#757C98"/>
<path d="M11 11.5H9V18.5H11V11.5Z" fill="#757C98"/>
<path d="M15 11.5H13V18.5H15V11.5Z" fill="#757C98"/>
<path d="M19 11.5H17V18.5H19V11.5Z" fill="#757C98"/>
<path d="M23 23.25H1C0.59 23.25 0.25 22.91 0.25 22.5C0.25 22.09 0.59 21.75 1 21.75H23C23.41 21.75 23.75 22.09 23.75 22.5C23.75 22.91 23.41 23.25 23 23.25Z" fill="#757C98"/>
<path d="M21.37 6.25L12.37 2.65C12.17 2.57 11.83 2.57 11.63 2.65L2.63 6.25C2.28 6.39 2 6.8 2 7.18V10.5C2 11.05 2.45 11.5 3 11.5H21C21.55 11.5 22 11.05 22 10.5V7.18C22 6.8 21.72 6.39 21.37 6.25ZM12 9C11.17 9 10.5 8.33 10.5 7.5C10.5 6.67 11.17 6 12 6C12.83 6 13.5 6.67 13.5 7.5C13.5 8.33 12.83 9 12 9Z" fill="#757C98"/>
</svg>
