<svg width="24" height="25" viewBox="0 0 24 25" fill="none" xmlns="http://www.w3.org/2000/svg">
<path d="M11.2402 2.76953H12.7598C14.5553 2.76953 15.2902 3.26247 15.6299 3.79004C16.0059 4.3741 16.0205 5.15437 16.0205 6.0293V6.56934H16.7598C18.7607 6.56934 20.0075 7.02824 20.7188 7.81445C21.5066 8.68614 21.5495 9.87076 21.4717 10.8623C21.4665 10.903 21.4639 10.9376 21.4619 10.96C21.4594 10.989 21.4585 10.9993 21.457 11.0078L21.4541 11.0215L21.4531 11.0371L21.4033 11.5039L21.3877 11.6436C21.0214 11.9077 20.6278 12.1725 20.2539 12.3838L20.2432 12.3906C20.2246 12.4018 20.2075 12.4125 20.1943 12.4209C20.1793 12.4306 20.1723 12.435 20.1621 12.4414C20.1456 12.4518 20.1353 12.4572 20.126 12.4619L20.1123 12.4697L20.0977 12.4775C18.3706 13.4866 16.4592 14.176 14.4805 14.4961L14.0898 14.5596L14.0615 14.9531C14.0302 15.3873 13.9229 15.7608 13.6553 16.0312C13.3922 16.2969 12.8873 16.5498 11.8701 16.5498C10.8546 16.5498 10.3551 16.295 10.0938 16.0303C9.82592 15.759 9.71855 15.3882 9.67773 14.9619L9.64062 14.5781L9.25977 14.5156C7.51952 14.2331 5.80657 13.6776 4.2334 12.8584L3.9209 12.6914L3.91504 12.6885L3.7002 12.5723C3.6332 12.5348 3.57064 12.4975 3.51074 12.459L3.49707 12.4502L3.48242 12.4424C3.26095 12.3193 2.87661 12.072 2.63379 11.9131L2.55762 11.1025L2.55664 11.0908L2.55469 11.0791L2.54688 11.0215C2.44861 10.0216 2.44946 8.74809 3.28027 7.82422L3.28125 7.8252C3.99263 7.03849 5.22938 6.5791 7.24023 6.5791H7.98047V6.0293C7.98047 5.15978 7.99476 4.37948 8.37109 3.79395C8.71112 3.26492 9.44562 2.76953 11.2402 2.76953ZM10.1299 14.3398C10.1299 14.5832 10.1288 14.8211 10.1523 15.0186C10.1762 15.2187 10.233 15.4579 10.4082 15.6572C10.5873 15.8611 10.8253 15.9507 11.0527 15.9951C11.2762 16.0387 11.5487 16.0498 11.8604 16.0498C12.1694 16.0498 12.4398 16.0404 12.6611 16C12.8857 15.959 13.1272 15.8744 13.3096 15.6699C13.488 15.4697 13.5438 15.2269 13.5674 15.0254C13.5908 14.8256 13.5898 14.5825 13.5898 14.3291V12.5791H10.1299V14.3398ZM11.2402 3.19922C10.6426 3.19922 10.1556 3.23916 9.7666 3.34082C9.36914 3.44469 9.04135 3.62228 8.80859 3.91797C8.58181 4.20608 8.49159 4.54869 8.4502 4.8877C8.40931 5.22252 8.41016 5.61472 8.41016 6.0293V6.5791H15.5898V6.0293C15.5898 5.61717 15.5907 5.226 15.5498 4.8916C15.5084 4.55303 15.4186 4.21023 15.1924 3.92188C14.9602 3.6259 14.6322 3.4477 14.2344 3.34277C13.845 3.24011 13.3578 3.19922 12.7598 3.19922H11.2402Z" fill="#09093C" stroke="#09093C"/>
<path d="M21.0979 14.6865C21.0992 14.6874 21.1002 14.6888 21.1008 14.6895V14.6904L20.7424 18.6377C20.6415 19.5987 20.4021 20.4646 19.7473 21.1016C19.0955 21.7354 17.9404 22.2295 15.8098 22.2295H8.1897C6.05924 22.2294 4.90402 21.7355 4.2522 21.1025C3.67921 20.5461 3.4243 19.8152 3.302 19.001L3.25708 18.6475L2.91724 14.9062V14.9053C2.91781 14.9047 2.91894 14.9042 2.92017 14.9033C2.92233 14.9018 2.92402 14.9007 2.92505 14.9004C2.92505 14.9004 2.92658 14.9003 2.92896 14.9014C4.0607 15.4134 6.20277 16.3473 7.55005 16.7002C7.55949 16.7027 7.57905 16.7125 7.59302 16.7422C8.30908 18.2736 9.848 19.0195 11.8704 19.0195C13.8804 19.0195 15.4308 18.2427 16.1467 16.7129C16.1606 16.6832 16.1804 16.6727 16.1907 16.6699C17.6236 16.2929 19.9052 15.2484 21.0881 14.6855C21.0895 14.6849 21.0905 14.6838 21.0911 14.6836C21.0914 14.6836 21.0945 14.6843 21.0979 14.6865Z" fill="#09093C" stroke="#09093C"/>
</svg>
