<svg width="24" height="25" viewBox="0 0 24 25" fill="none" xmlns="http://www.w3.org/2000/svg">
<path d="M11.2402 2.77002H12.7598C14.5553 2.77002 15.2902 3.26296 15.6299 3.79053C16.0059 4.37459 16.0205 5.15485 16.0205 6.02979V6.56982H16.7598C18.7607 6.56982 20.0075 7.02873 20.7188 7.81494C21.5066 8.68663 21.5495 9.87124 21.4717 10.8628C21.4665 10.9035 21.4639 10.938 21.4619 10.9604C21.4594 10.9894 21.4585 10.9998 21.457 11.0083L21.4541 11.022L21.4531 11.0376L21.4033 11.5044L21.3877 11.644C21.0214 11.9082 20.6278 12.1729 20.2539 12.3843L20.2432 12.3911C20.2246 12.4023 20.2075 12.4129 20.1943 12.4214C20.1793 12.431 20.1723 12.4355 20.1621 12.4419C20.1456 12.4523 20.1353 12.4577 20.126 12.4624L20.1123 12.4702L20.0977 12.478C18.3706 13.4871 16.4592 14.1765 14.4805 14.4966L14.0898 14.5601L14.0615 14.9536C14.0302 15.3877 13.9229 15.7613 13.6553 16.0317C13.3922 16.2973 12.8873 16.5503 11.8701 16.5503C10.8546 16.5503 10.3551 16.2954 10.0938 16.0308C9.82592 15.7594 9.71855 15.3886 9.67773 14.9624L9.64062 14.5786L9.25977 14.5161C7.51952 14.2336 5.80657 13.6781 4.2334 12.8589L3.9209 12.6919L3.91504 12.689L3.7002 12.5728C3.6332 12.5353 3.57064 12.498 3.51074 12.4595L3.49707 12.4507L3.48242 12.4429C3.26095 12.3198 2.87661 12.0725 2.63379 11.9136L2.55762 11.103L2.55664 11.0913L2.55469 11.0796L2.54688 11.022C2.44861 10.0221 2.44946 8.74858 3.28027 7.82471L3.28125 7.82568C3.99263 7.03898 5.22938 6.57959 7.24023 6.57959H7.98047V6.02979C7.98047 5.16027 7.99476 4.37997 8.37109 3.79443C8.71112 3.26541 9.44562 2.77002 11.2402 2.77002ZM10.1299 14.3403C10.1299 14.5837 10.1288 14.8216 10.1523 15.019C10.1762 15.2192 10.233 15.4583 10.4082 15.6577C10.5873 15.8615 10.8253 15.9512 11.0527 15.9956C11.2762 16.0392 11.5487 16.0503 11.8604 16.0503C12.1694 16.0503 12.4398 16.0409 12.6611 16.0005C12.8857 15.9595 13.1272 15.8749 13.3096 15.6704C13.488 15.4702 13.5438 15.2274 13.5674 15.0259C13.5908 14.8261 13.5898 14.583 13.5898 14.3296V12.5796H10.1299V14.3403ZM11.2402 3.19971C10.6426 3.19971 10.1556 3.23965 9.7666 3.34131C9.36914 3.44518 9.04135 3.62277 8.80859 3.91846C8.58181 4.20657 8.49159 4.54918 8.4502 4.88818C8.40931 5.22301 8.41016 5.61521 8.41016 6.02979V6.57959H15.5898V6.02979C15.5898 5.61766 15.5907 5.22649 15.5498 4.89209C15.5084 4.55352 15.4186 4.21072 15.1924 3.92236C14.9602 3.62639 14.6322 3.44818 14.2344 3.34326C13.845 3.2406 13.3578 3.19971 12.7598 3.19971H11.2402Z" fill="#757C98" stroke="#757C98"/>
<path d="M21.0977 14.6868C21.099 14.6877 21.1 14.689 21.1006 14.6897V14.6907L20.7422 18.6379C20.6413 19.5989 20.4019 20.4648 19.7471 21.1018C19.0953 21.7357 17.9401 22.2297 15.8096 22.2297H8.18945C6.05899 22.2297 4.90378 21.7358 4.25195 21.1028C3.67896 20.5463 3.42405 19.8155 3.30176 19.0012L3.25684 18.6477L2.91699 14.9065V14.9055C2.91756 14.9049 2.91869 14.9044 2.91992 14.9036C2.92209 14.902 2.92377 14.9009 2.9248 14.9006C2.9248 14.9006 2.92633 14.9005 2.92871 14.9016C4.06045 15.4136 6.20253 16.3476 7.5498 16.7004C7.55925 16.7029 7.5788 16.7128 7.59277 16.7424C8.30884 18.2739 9.84776 19.0198 11.8701 19.0198C13.8801 19.0197 15.4306 18.243 16.1465 16.7131C16.1604 16.6834 16.1801 16.673 16.1904 16.6702C17.6233 16.2931 19.905 15.2487 21.0879 14.6858C21.0892 14.6852 21.0902 14.684 21.0908 14.6838C21.0912 14.6839 21.0943 14.6845 21.0977 14.6868Z" fill="#757C98" stroke="#757C98"/>
</svg>
