<svg width="24" height="25" viewBox="0 0 24 25" fill="none" xmlns="http://www.w3.org/2000/svg">
<path d="M5.58984 3C5.79983 3 6.00539 3.04532 6.18359 3.13086L6.19043 3.13379C6.37615 3.21951 6.53415 3.34382 6.65918 3.52441L6.66211 3.5293L8.98242 6.7998L8.98438 6.80176C9.14626 7.0266 9.25489 7.22279 9.32715 7.39941L9.33008 7.40723C9.40056 7.57171 9.42969 7.71417 9.42969 7.82031C9.42963 7.95958 9.39009 8.11095 9.29297 8.27051L9.28516 8.28418C9.18308 8.46477 9.02399 8.66937 8.80664 8.88672L8.7998 8.89355L8.04004 9.68359C7.83334 9.8938 7.7403 10.1516 7.74023 10.4297C7.74023 10.5571 7.75695 10.6684 7.78516 10.7812L7.79199 10.8086L7.80176 10.8359C7.82104 10.8873 7.84093 10.9322 7.85352 10.9619C7.86782 10.9957 7.87301 11.0097 7.87598 11.0186L7.88965 11.0605L7.91113 11.0996C8.11477 11.4729 8.44966 11.9325 8.89844 12.4629L8.90234 12.4668C9.35743 12.9927 9.8441 13.5312 10.373 14.0703L10.376 14.0732C10.431 14.1283 10.4884 14.1832 10.54 14.2324C10.5933 14.2832 10.6416 14.3291 10.6865 14.374L10.6914 14.3779C10.894 14.5757 10.897 14.896 10.6963 15.0967L8.84668 16.9463C8.67773 17.1152 8.41866 17.1417 8.2168 17.0127L8.13477 16.9473C8.07811 16.8909 8.02231 16.8373 7.9707 16.7881C7.91547 16.7354 7.86433 16.6875 7.81445 16.6377H7.81543C6.80311 15.6155 5.88943 14.5459 5.0752 13.4277H5.07617C4.27379 12.3122 3.63297 11.2044 3.16992 10.1143C2.72114 9.02416 2.50001 8.00081 2.5 7.04004C2.5 6.41936 2.60946 5.83288 2.82422 5.2959L2.8252 5.29297C3.01018 4.82282 3.29097 4.38173 3.67969 3.97559L3.85352 3.80371L3.86035 3.7959C4.42483 3.24024 5.00448 3.00004 5.58984 3Z" fill="#757C98" stroke="#757C98"/>
<path d="M16.6401 15.04C16.7568 15.04 16.8929 15.064 17.061 15.1328C17.1945 15.1874 17.3396 15.2633 17.5015 15.3642L17.6685 15.4736L20.9702 17.8173L20.9751 17.8212C21.1706 17.9565 21.2845 18.0977 21.3521 18.2509C21.4298 18.4493 21.4702 18.6317 21.4702 18.83C21.4702 19.0512 21.4303 19.2843 21.3491 19.5117C21.3194 19.5909 21.2986 19.6449 21.2729 19.6962L21.2681 19.706C21.1179 20.024 20.9245 20.323 20.6694 20.6044C20.241 21.0765 19.7804 21.4105 19.272 21.6298L19.1821 21.6669C18.6521 21.8825 18.0753 21.9999 17.4497 21.9999C16.5089 21.9999 15.4859 21.7781 14.3862 21.3095C13.4134 20.895 12.436 20.3535 11.4614 19.6816L11.0444 19.3857C10.8064 19.2087 10.5743 19.0342 10.3481 18.8583L12.9263 16.2802C13.0871 16.3872 13.2381 16.4792 13.3784 16.5527L13.4009 16.5644L13.4243 16.5742C13.436 16.5788 13.4525 16.5862 13.4839 16.6005C13.5121 16.6135 13.5513 16.6314 13.5933 16.6494L13.604 16.6542L13.6147 16.6581C13.7677 16.7155 13.9119 16.7304 14.0405 16.7304C14.3488 16.7303 14.6031 16.613 14.8013 16.416L15.561 15.666L15.564 15.664C15.7937 15.4342 15.9929 15.2813 16.1616 15.1933L16.1763 15.1855L16.1899 15.1767C16.3514 15.0784 16.4927 15.04 16.6401 15.04ZM19.1821 21.6679C19.1801 21.6688 19.1779 21.6701 19.1763 21.6708C19.169 21.6742 19.1626 21.6772 19.1616 21.6777C19.1629 21.677 19.1661 21.6753 19.1694 21.6738C19.1724 21.6724 19.1767 21.6702 19.1821 21.6679Z" fill="#757C98" stroke="#757C98"/>
</svg>
