<svg width="32" height="32" viewBox="0 0 32 32" fill="none" xmlns="http://www.w3.org/2000/svg">
<path d="M7.4538 3.16699C7.75694 3.16706 8.05568 3.23196 8.31708 3.35742L8.32391 3.36133C8.59621 3.48704 8.83034 3.67128 9.01532 3.93848L9.01923 3.94336L12.112 8.30273L12.114 8.30566C12.3358 8.61384 12.4883 8.88676 12.5905 9.13672L12.5934 9.14355C12.694 9.37808 12.7399 9.59124 12.7399 9.76074C12.7398 9.97997 12.6767 10.2111 12.5329 10.4473L12.5251 10.4609C12.3797 10.7181 12.1573 11.0026 11.86 11.2998L11.8532 11.3066L10.8395 12.3604C10.5962 12.6072 10.487 12.9088 10.487 13.2402C10.487 13.3942 10.5069 13.5286 10.5417 13.668L10.5485 13.6963L10.5583 13.7227C10.5826 13.7875 10.6075 13.8441 10.6247 13.8848C10.6435 13.9293 10.6526 13.9528 10.6589 13.9717L10.6735 14.0137L10.694 14.0527C10.9577 14.5361 11.3964 15.14 11.9919 15.8438L11.9948 15.8477C12.5999 16.5469 13.2476 17.2618 13.9499 17.9775L13.9528 17.9805C14.0245 18.0522 14.0995 18.1236 14.1686 18.1895C14.2394 18.2568 14.3053 18.3193 14.3669 18.3809L14.3708 18.3848C14.7069 18.7125 14.7137 19.246 14.3796 19.5801L11.9128 22.0469C11.5897 22.3697 11.0722 22.3757 10.7302 22.0508C10.6555 21.9764 10.582 21.9053 10.5124 21.8389C10.4389 21.7687 10.3696 21.7029 10.3015 21.6348H10.3024C8.94671 20.2659 7.72247 18.8332 6.63153 17.335H6.63251C5.69118 16.0263 4.91483 14.7235 4.31805 13.4355L4.07391 12.8848C3.4684 11.4146 3.16675 10.0281 3.16669 8.7207C3.16669 7.87338 3.31628 7.06997 3.61102 6.33301L3.612 6.33008C3.86697 5.68202 4.25344 5.07583 4.78583 4.51953L5.02313 4.28418L5.03094 4.27637C5.80874 3.51081 6.62179 3.16699 7.4538 3.16699Z" fill="#09093C" stroke="#09093C"/>
<path d="M22.1867 19.2197C22.3667 19.2197 22.5693 19.2567 22.8107 19.3555C23.0596 19.4573 23.3319 19.6096 23.6428 19.8203H23.6437L28.0568 22.9541L28.0617 22.957C28.3418 23.1509 28.5149 23.3613 28.6193 23.5957C28.7318 23.8795 28.7931 24.1463 28.7932 24.4395C28.7932 24.7539 28.7367 25.0837 28.6223 25.4043C28.5824 25.5106 28.5517 25.5912 28.5129 25.6689L28.508 25.6797C28.3012 26.1176 28.0345 26.5289 27.6828 26.917C27.0883 27.5722 26.4448 28.0372 25.7297 28.3398H25.7287L25.6379 28.377C24.9114 28.6724 24.1222 28.833 23.2668 28.833C21.9859 28.833 20.5994 28.5313 19.1164 27.8994C17.6226 27.2629 16.1226 26.4039 14.631 25.3184H14.632C14.2612 25.0426 13.8979 24.7711 13.5461 24.4932L17.2131 20.8262C17.4659 20.9999 17.7009 21.1441 17.9142 21.2559L17.9377 21.2676L17.9611 21.2773C17.9812 21.2854 18.0066 21.2974 18.048 21.3164C18.0862 21.3339 18.1361 21.356 18.1896 21.3789L18.2004 21.3838L18.2111 21.3877C18.3908 21.4551 18.5612 21.4727 18.7199 21.4727C19.0849 21.4727 19.3825 21.3362 19.6174 21.1025L20.631 20.1025L20.634 20.0996C20.9467 19.7869 21.2257 19.5714 21.4709 19.4434L21.4855 19.4355L21.5002 19.4268C21.7382 19.2819 21.956 19.2197 22.1867 19.2197ZM25.6232 28.3857C25.6245 28.3851 25.6266 28.384 25.6291 28.3828C25.6299 28.3824 25.631 28.3813 25.632 28.3809C25.6274 28.3831 25.6241 28.3853 25.6232 28.3857Z" fill="#09093C" stroke="#09093C"/>
</svg>
