<svg width="25" height="21" viewBox="0 0 25 21" fill="none" xmlns="http://www.w3.org/2000/svg">
<path d="M5.99966 0.699951H19.3336C21.7612 0.700113 23.7917 2.51326 24.1178 4.85522L24.1188 4.85718C24.1225 4.88284 24.1154 4.90249 24.0963 4.92261C24.0744 4.94582 24.0364 4.96647 23.987 4.96655H23.2262C21.8159 4.96667 20.5029 5.52449 19.5553 6.48413C18.4371 7.58774 17.8757 9.10682 18.0085 10.656V10.657C18.2458 13.3565 20.6091 15.4332 23.3864 15.4333H23.987C24.0364 15.4334 24.0744 15.4541 24.0963 15.4773C24.1154 15.4974 24.1225 15.5171 24.1188 15.5427L24.1178 15.5447C23.7916 17.8874 21.7737 19.6998 19.3336 19.7H5.99966C3.3294 19.6998 1.16683 17.5372 1.16666 14.8669V5.53296C1.16683 2.94588 3.19674 0.834955 5.75162 0.705811L5.99966 0.699951ZM7.33365 5.36694C6.51519 5.36694 5.83365 6.02647 5.83365 6.86694C5.83382 7.70726 6.5153 8.36694 7.33365 8.36694H15.3336C16.1562 8.36677 16.8335 7.6895 16.8336 6.86694C16.8336 6.04424 16.1563 5.36712 15.3336 5.36694H7.33365Z" fill="#0268FB" stroke="#0268FB"/>
</svg>
