<svg width="32" height="32" viewBox="0 0 32 32" fill="none" xmlns="http://www.w3.org/2000/svg">
<path d="M16.7025 2.66113C17.474 2.1133 18.5312 1.96959 19.6312 2.32812L25.5209 4.30078L25.5228 4.30176C26.3114 4.5627 27.0503 5.14772 27.5941 5.90234C28.1379 6.65694 28.4602 7.54337 28.4603 8.37305V9.93359C28.4603 11.1092 27.995 12.0626 27.2308 12.6055L27.2211 12.6123C26.7475 12.9646 26.15 13.1396 25.5062 13.1396C25.1041 13.1396 24.7059 13.0812 24.2953 12.9404L24.2914 12.9385L17.1176 10.5527L16.4603 10.333V24C16.4603 27.2172 13.8435 29.833 10.6263 29.833C7.4093 29.8328 4.79333 27.2171 4.79333 24C4.79334 20.7829 7.4093 18.1672 10.6263 18.167C12.1708 18.167 13.5709 18.7786 14.6176 19.7637L15.4603 20.5576V5.33301C15.4604 4.17903 15.9325 3.22132 16.7025 2.66113Z" fill="#1F8A70" stroke="#1F8A70"/>
</svg>
