<svg width="32" height="32" viewBox="0 0 32 32" fill="none" xmlns="http://www.w3.org/2000/svg">
<path d="M14.0003 5.83337H18.0003C18.8174 5.83356 19.5003 6.51629 19.5003 7.33337V8.83337H25.305C25.3061 8.8337 25.3076 8.83397 25.3089 8.83435C25.3154 8.83626 25.3252 8.83931 25.3353 8.84216C25.3565 8.84819 25.3871 8.85663 25.4222 8.86365L25.8343 8.94666L25.9866 8.55408C26.302 7.73849 27.0822 7.16638 28.0003 7.16638C29.1907 7.16656 30.1663 8.14296 30.1663 9.33337C30.1663 10.5238 29.1907 11.5002 28.0003 11.5004C27.0822 11.5004 26.302 10.9283 25.9866 10.1127L25.8343 9.72009L25.4222 9.8031C25.3871 9.81012 25.3565 9.81856 25.3353 9.82458C25.3252 9.82744 25.3154 9.83049 25.3089 9.8324C25.3076 9.83278 25.3061 9.83304 25.305 9.83337H20.3929L21.6087 10.7347C24.2109 12.6642 25.8333 15.8734 25.8333 19.3334C25.8333 19.5392 25.8217 19.7332 25.7972 19.9418L25.7308 20.5004H26.6663C27.4968 20.5004 28.1663 21.1698 28.1663 22.0004V24.6664C28.1663 25.4969 27.4968 26.1664 26.6663 26.1664H24.0003C23.7872 26.1664 23.5929 26.1188 23.4007 26.0277L23.3812 26.0199L23.2874 25.976C22.826 25.738 22.5003 25.2386 22.5003 24.6664V22.0004C22.5003 21.1698 23.1698 20.5004 24.0003 20.5004H24.8196V20.0004C24.8196 19.9631 24.8166 19.9305 24.8138 19.9076C24.8118 19.8921 24.8096 19.8776 24.8079 19.8676C24.82 19.7001 24.8333 19.5232 24.8333 19.3334C24.8333 15.8867 23.0552 12.6905 20.2405 11.0355L19.5403 10.6244L19.4876 11.434C19.4377 12.203 18.7844 12.8332 18.0003 12.8334H14.0003C13.2148 12.8334 12.5653 12.2035 12.5257 11.4408L12.4837 10.6185L11.7728 11.0355C8.9584 12.6903 7.17999 15.8729 7.17999 19.3334C7.17999 19.4963 7.17938 19.6798 7.20245 19.8793C7.20117 19.8876 7.20079 19.8975 7.19952 19.9076C7.19666 19.9305 7.19366 19.9631 7.19366 20.0004V20.5004H8.00031C8.83068 20.5005 9.50031 21.17 9.50031 22.0004V24.6664C9.50031 25.2767 9.12883 25.804 8.61847 26.0199L8.59894 26.0277C8.40683 26.1187 8.21328 26.1663 8.00031 26.1664H5.33331C4.50279 26.1664 3.83331 25.4969 3.83331 24.6664V22.0004C3.83331 21.1698 4.50279 20.5004 5.33331 20.5004H6.26886L6.20343 19.9418C6.17889 19.7332 6.16632 19.5392 6.16632 19.3334C6.16632 15.8734 7.78874 12.6642 10.3909 10.7347L11.6068 9.83337H6.69562C6.69443 9.83303 6.6931 9.8328 6.69171 9.8324C6.68515 9.83047 6.67464 9.8275 6.66437 9.82458C6.64322 9.81858 6.61337 9.8101 6.57843 9.8031L6.16534 9.72009L6.01398 10.1127C5.69866 10.9282 4.91824 11.5002 4.00031 11.5004C2.80978 11.5004 1.83331 10.5239 1.83331 9.33337C1.83331 8.14285 2.80978 7.16638 4.00031 7.16638C4.91824 7.16652 5.69866 7.73859 6.01398 8.55408L6.16534 8.94666L6.57843 8.86365C6.61337 8.85665 6.64322 8.84816 6.66437 8.84216C6.67464 8.83925 6.68515 8.83627 6.69171 8.83435C6.6931 8.83394 6.69443 8.83372 6.69562 8.83337H12.5003V7.33337C12.5003 6.51618 13.1831 5.83337 14.0003 5.83337Z" fill="#FED049" stroke="#FED049"/>
</svg>
