<svg width="32" height="32" viewBox="0 0 32 32" fill="none" xmlns="http://www.w3.org/2000/svg">
<path d="M3.99967 13.8334H27.9997C28.4568 13.8334 28.8335 14.2093 28.8337 14.6664V21.5863C28.8337 21.8363 28.8206 22.0871 28.7956 22.3373L28.7946 22.3461V22.3539C28.6676 24.3101 28.0048 25.8477 26.9264 26.9261C25.848 28.0046 24.3105 28.6673 22.3542 28.7943L22.3366 28.7963C22.0865 28.8213 21.8364 28.8334 21.5866 28.8334H10.4137C10.1638 28.8334 9.91298 28.8213 9.66276 28.7963L9.65397 28.7953L9.64616 28.7943L9.28385 28.764C7.49904 28.5826 6.08494 27.9372 5.07389 26.9261C3.99544 25.8477 3.33276 24.3102 3.20573 22.3539L3.20475 22.3461L3.20377 22.3373L3.17643 21.9613C3.17019 21.8364 3.16666 21.7111 3.16666 21.5863V14.6664C3.16684 14.2094 3.54274 13.8336 3.99967 13.8334ZM13.3434 17.9945C13.0026 17.294 12.1838 16.9872 11.4723 17.265L11.3415 17.3236C10.2194 17.8703 9.27177 18.7175 8.59733 19.7357C7.99242 20.6431 7.95487 21.8061 8.48405 22.7455L8.59733 22.931C9.27177 23.9493 10.2194 24.7965 11.3415 25.3431V25.3422C11.5382 25.4396 11.772 25.5003 11.9997 25.5004C12.5361 25.5004 13.0768 25.2044 13.3405 24.6771C13.7155 23.9271 13.4213 23.0181 12.654 22.6547C12.059 22.3488 11.5366 21.8913 11.1383 21.3334C11.5366 20.7755 12.059 20.3179 12.654 20.0121C13.4198 19.6493 13.714 18.7437 13.3424 17.9945H13.3434ZM20.9401 17.3246C20.2023 16.9513 19.3029 17.2487 18.9391 17.9896C18.5654 18.737 18.8564 19.6445 19.6081 20.0101V20.0092C20.2192 20.3157 20.7419 20.7758 21.1286 21.3334C20.7915 21.8194 20.3513 22.2312 19.8385 22.5316L19.6081 22.6566C18.8564 23.0223 18.5654 23.9297 18.9391 24.6771C19.2012 25.2012 19.7264 25.5003 20.2799 25.5004C20.5178 25.5004 20.736 25.4355 20.9264 25.349L20.9342 25.3451L20.9411 25.3422C22.0493 24.7952 22.9951 23.948 23.6813 22.933L23.6823 22.931C24.3276 21.9631 24.3276 20.7037 23.6823 19.7357L23.6813 19.7338L23.4118 19.3607C22.756 18.5112 21.9108 17.8031 20.9411 17.3246H20.9401Z" fill="#EB5757" stroke="#EB5757"/>
<path d="M10.4137 3.16663H21.5866C21.8364 3.16663 22.0865 3.17874 22.3366 3.20374L22.3542 3.20569C24.3105 3.33272 25.848 3.9954 26.9264 5.07385C28.0048 6.1523 28.6676 7.68988 28.7946 9.64612V9.65393L28.7956 9.66272C28.8206 9.91294 28.8337 10.1637 28.8337 10.4137V10.6666C28.8337 11.1238 28.4569 11.4996 27.9997 11.4996L3.99967 11.5133C3.54274 11.5131 3.16685 11.1372 3.16666 10.6803V10.4137C3.16666 10.1637 3.17875 9.91294 3.20377 9.66272L3.20475 9.65393L3.20573 9.64612C3.33276 7.68979 3.99543 6.15231 5.07389 5.07385C6.15235 3.9954 7.68982 3.33272 9.64616 3.20569L9.65397 3.20471L9.66276 3.20374C9.91297 3.17871 10.1638 3.16663 10.4137 3.16663Z" fill="#EB5757" stroke="#EB5757"/>
</svg>
