<svg width="64" height="64" viewBox="0 0 64 64" fill="none" xmlns="http://www.w3.org/2000/svg">
<g clip-path="url(#clip0_471_1448)">
<rect width="64" height="64" rx="12" fill="white"/>
<rect x="-2.99829" y="-1.25781" width="69.1249" height="70.4782" fill="url(#paint0_linear_471_1448)"/>
<rect x="-5.74121" y="41.6178" width="80.4213" height="31.7531" fill="#27AFFF"/>
<ellipse cx="16.7106" cy="52.5358" rx="30.3948" ry="4.72502" transform="rotate(-6.6686 16.7106 52.5358)" fill="#2189C6"/>
<path d="M39.1522 1.96608C38.8823 4.0125 40.1763 5.94036 42.1725 6.46563C40.1261 6.19565 38.1982 7.48968 37.673 9.4859C37.943 7.43946 36.6489 5.51163 34.6527 4.98635C36.6991 5.25634 38.627 3.96228 39.1522 1.96608Z" fill="#FFE459"/>
<path d="M26.0949 16.5358C16.0705 17.4269 7.94434 26.3074 7.94434 36.3714L7.9753 36.3686V54.5908C7.9753 55.7698 8.93621 56.6491 10.1107 56.5447L42.1101 53.7003C43.2846 53.5959 44.2455 52.5458 44.2455 51.3668V33.1446C44.2455 23.0806 36.1194 15.6448 26.0949 16.5358Z" fill="#30476C"/>
<path d="M29.298 16.8151C19.2736 17.7062 11.1475 26.5867 11.1475 36.6507L11.1784 36.6479V54.8701C11.1784 56.0491 12.1393 56.9284 13.3138 56.824L45.3133 53.9796C46.4877 53.8752 47.4486 52.8251 47.4486 51.6461V33.4239C47.4486 23.3599 39.3225 15.9241 29.298 16.8151Z" fill="#C1DAF5"/>
<path d="M29.2981 50.0437C37.5534 49.3099 44.2457 41.9964 44.2457 33.7086C44.2457 25.4207 37.5534 19.297 29.2981 20.0308C21.0428 20.7646 14.3506 28.0781 14.3506 36.3659C14.3506 44.6538 21.0428 50.7775 29.2981 50.0437Z" fill="white"/>
<path d="M29.2974 21.1028C36.9634 20.4214 43.1773 26.1075 43.1773 33.8037C43.1773 41.4998 36.9634 48.2906 29.2974 48.972C21.6315 49.6534 15.4176 43.9674 15.4176 36.2712C15.4176 28.575 21.6315 21.7843 29.2974 21.1028ZM29.2974 18.9591C20.4667 19.744 13.2822 27.5954 13.2822 36.461C13.2822 45.3266 20.4667 51.9007 29.2974 51.1158C38.1282 50.3308 45.3127 42.4795 45.3127 33.6138C45.3127 24.7482 38.1282 18.1741 29.2974 18.9591Z" fill="#8CACDE"/>
<path d="M30.365 23.1515C30.365 22.8673 30.2525 22.6046 30.0522 22.4214C29.852 22.2382 29.5804 22.1494 29.2973 22.1746C29.0141 22.1997 28.7425 22.3368 28.5423 22.5556C28.3421 22.7744 28.2296 23.0571 28.2296 23.3414V24.4132C28.2296 24.6975 28.3421 24.9602 28.5423 25.1434C28.7425 25.3266 29.0141 25.4154 29.2973 25.3902C29.5804 25.3651 29.852 25.228 30.0522 25.0092C30.2525 24.7904 30.365 24.5077 30.365 24.2234V23.1515ZM30.365 45.6613C30.365 45.377 30.2525 45.1143 30.0522 44.9311C29.852 44.7479 29.5804 44.6591 29.2973 44.6843C29.0141 44.7094 28.7425 44.8465 28.5423 45.0653C28.3421 45.2841 28.2296 45.5668 28.2296 45.8511V46.923C28.2296 47.2072 28.3421 47.4699 28.5423 47.6531C28.7425 47.8363 29.0141 47.9251 29.2973 47.8999C29.5804 47.8748 29.852 47.7377 30.0522 47.5189C30.2525 47.3001 30.365 47.0174 30.365 46.7331V45.6613ZM18.6205 34.9144L17.5528 35.0093C17.2696 35.0345 16.9981 35.1716 16.7978 35.3904C16.5976 35.6092 16.4851 35.8918 16.4851 36.1761C16.4851 36.4604 16.5976 36.723 16.7978 36.9063C16.9981 37.0895 17.2696 37.1783 17.5528 37.1531L18.6205 37.0582C18.9036 37.033 19.1752 36.8959 19.3754 36.6771C19.5757 36.4583 19.6882 36.1757 19.6882 35.8914C19.6882 35.6071 19.5757 35.3445 19.3754 35.1612C19.1752 34.978 18.9036 34.8892 18.6205 34.9144ZM41.0418 32.9214L39.9741 33.0163C39.6909 33.0415 39.4194 33.1785 39.2191 33.3974C39.0189 33.6162 38.9064 33.8988 38.9064 34.1831C38.9064 34.4674 39.0189 34.73 39.2191 34.9132C39.4194 35.0965 39.6909 35.1853 39.9741 35.1601L41.0418 35.0652C41.3249 35.04 41.5965 34.9029 41.7967 34.6841C41.997 34.4653 42.1095 34.1827 42.1095 33.8984C42.1095 33.6141 41.997 33.3515 41.7967 33.1682C41.5965 32.985 41.3249 32.8962 41.0418 32.9214ZM38.5936 42.0282L37.8387 41.3375C37.7396 41.2468 37.6219 41.1783 37.4924 41.1359C37.3629 41.0936 37.2241 41.0782 37.0839 41.0907C36.9437 41.1031 36.8049 41.1432 36.6754 41.2086C36.5458 41.2739 36.4282 41.3633 36.329 41.4717C36.2299 41.58 36.1513 41.7051 36.0976 41.8399C36.044 41.9747 36.0164 42.1166 36.0164 42.2573C36.0164 42.398 36.044 42.5349 36.0976 42.6602C36.1513 42.7855 36.2299 42.8966 36.329 42.9873L37.0839 43.6781C37.2841 43.8613 37.5556 43.95 37.8387 43.9249C38.1219 43.8997 38.3934 43.7626 38.5936 43.5439C38.7938 43.3251 38.9063 43.0425 38.9063 42.7582C38.9063 42.474 38.7938 42.2114 38.5936 42.0282ZM20.7558 42.856L20.001 43.6809C19.8008 43.8997 19.6883 44.1823 19.6883 44.4665C19.6883 44.7507 19.8008 45.0133 20.001 45.1965C20.2012 45.3797 20.4727 45.4685 20.7558 45.4433C21.039 45.4182 21.3105 45.2811 21.5107 45.0623L22.2655 44.2374C22.3647 44.1291 22.4433 44.004 22.4969 43.8692C22.5506 43.7344 22.5782 43.5925 22.5782 43.4518C22.5782 43.3111 22.5506 43.1741 22.4969 43.0489C22.4433 42.9236 22.3647 42.8125 22.2655 42.7218C22.1664 42.6311 22.0487 42.5626 21.9192 42.5202C21.7897 42.4779 21.6509 42.4625 21.5107 42.475C21.3705 42.4874 21.2317 42.5275 21.1022 42.5929C20.9726 42.6582 20.855 42.7476 20.7558 42.856ZM20.001 28.0463L20.7558 28.737C20.855 28.8277 20.9726 28.8962 21.1022 28.9386C21.2317 28.9809 21.3705 28.9963 21.5107 28.9838C21.6509 28.9714 21.7897 28.9313 21.9192 28.8659C22.0487 28.8006 22.1664 28.7111 22.2655 28.6028C22.3647 28.4945 22.4433 28.3694 22.4969 28.2346C22.5506 28.0998 22.5782 27.9579 22.5782 27.8172C22.5782 27.6765 22.5506 27.5395 22.4969 27.4143C22.4433 27.289 22.3647 27.1779 22.2655 27.0872L21.5107 26.3964C21.3105 26.2132 21.039 26.1245 20.7558 26.1496C20.4727 26.1748 20.2012 26.3118 20.001 26.5306C19.8008 26.7494 19.6883 27.032 19.6883 27.3163C19.6883 27.6005 19.8008 27.8631 20.001 28.0463ZM37.8387 27.2185L38.5936 26.3936C38.7938 26.1748 38.9063 25.8922 38.9063 25.608C38.9063 25.3237 38.7938 25.0611 38.5936 24.878C38.3934 24.6948 38.1219 24.606 37.8387 24.6311C37.5556 24.6563 37.2841 24.7934 37.0839 25.0122L36.329 25.8371C36.2299 25.9454 36.1513 26.0705 36.0976 26.2053C36.044 26.3401 36.0164 26.482 36.0164 26.6227C36.0164 26.7634 36.044 26.9003 36.0976 27.0256C36.1513 27.1509 36.2299 27.262 36.329 27.3527C36.4282 27.4434 36.5458 27.5119 36.6754 27.5543C36.8049 27.5966 36.9437 27.612 37.0839 27.5995C37.2241 27.5871 37.3629 27.547 37.4924 27.4816C37.6219 27.4163 37.7396 27.3269 37.8387 27.2185Z" fill="#CFE3FA"/>
<path d="M19.5981 32.5113C19.52 32.3212 19.5019 32.107 19.546 31.8957C19.5901 31.6845 19.6945 31.4857 19.8459 31.3244C19.9974 31.1632 20.1891 31.0467 20.3968 30.9899C20.6045 30.933 20.8188 30.9383 21.0128 31.0049L29.7186 33.9934C29.9787 34.0827 30.1837 34.2761 30.2884 34.5309C30.3931 34.7857 30.389 35.0812 30.277 35.3523C30.1651 35.6233 29.9543 35.8478 29.6912 35.9763C29.4281 36.1049 29.1342 36.1269 28.8741 36.0376L20.1682 33.0491C20.0394 33.0049 19.9227 32.9346 19.8248 32.8423C19.727 32.7501 19.65 32.6376 19.5981 32.5113Z" fill="#5AA3FF"/>
<g clip-path="url(#clip1_471_1448)">
<path d="M56.7716 12.8226L56.6952 13.9146C55.5866 14.118 46.7083 13.216 44.7332 13.0779L44.8096 11.9859C44.8533 11.3619 47.5672 11.043 50.8697 11.274C54.1722 11.505 56.8152 12.1986 56.7716 12.8226Z" fill="#8B5738"/>
<path d="M50.7887 12.4279C47.4855 12.1969 44.7723 12.5156 44.7287 13.1398C44.685 13.7641 47.3274 14.4574 50.6306 14.6885C53.9338 14.9195 56.647 14.6008 56.6906 13.9765C56.7343 13.3523 54.0919 12.659 50.7887 12.4279Z" fill="#FFB17A"/>
<path d="M50.7887 12.4279C47.4855 12.1969 44.7723 12.5156 44.7287 13.1398C44.685 13.7641 47.3274 14.4574 50.6306 14.6885C53.9338 14.9195 56.647 14.6008 56.6906 13.9765C56.7343 13.3523 54.0919 12.659 50.7887 12.4279Z" fill="#CC8552"/>
<path opacity="0.75" d="M49.3894 19.8237C49.4966 19.877 49.5374 19.9701 49.529 20.0893C49.5207 20.2085 49.4779 20.2913 49.3679 20.3206C48.6703 20.5469 45.1706 21.6138 44.8861 25.6802L44.863 26.3914L54.7196 27.0926L54.7895 26.3477C55.0653 22.405 51.766 20.7752 51.1081 20.4541C51.0009 20.4008 50.937 20.3209 50.9464 20.187C50.9558 20.053 51.0181 19.9864 51.1296 19.9572C51.8272 19.731 55.3269 18.664 55.6114 14.5977C55.6258 14.1373 55.4332 13.7615 54.8924 13.5861C54.165 13.3503 52.8025 13.0598 50.4258 12.8936C48.3786 12.7504 47.2217 12.8203 46.574 12.9244C45.9384 13.0263 45.7601 13.3762 45.7172 13.8405L45.7095 13.9302C45.4322 17.8728 48.7301 19.5025 49.3894 19.8237Z" fill="#81D4FA"/>
<path opacity="0.39" d="M44.8635 26.3913L54.7201 27.0926L54.7829 26.4285C54.7829 26.4285 53.7542 25.8064 49.8718 25.5349C45.9895 25.2633 44.8842 25.7362 44.8842 25.7362L44.8635 26.3913Z" fill="#1D44B3"/>
<path d="M55.7585 27.3013L55.6775 28.4595C54.6109 28.5269 45.2417 27.7295 43.7155 27.6228L43.7965 26.4646C43.8311 25.9701 46.5376 25.7571 49.8401 25.9881C53.1426 26.2191 55.7931 26.8068 55.7585 27.3013Z" fill="#8B5738"/>
<path d="M49.7592 27.1448C46.456 26.9138 43.7502 27.1271 43.7156 27.6213C43.681 28.1155 46.3308 28.7034 49.634 28.9344C52.9372 29.1655 55.643 28.9522 55.6776 28.458C55.7121 27.9638 53.0624 27.3759 49.7592 27.1448Z" fill="#CC8552"/>
<path d="M50.9004 18.6099C50.7275 18.8403 50.6671 19.2605 50.1947 19.2275C49.9283 19.2089 46.4263 13.8587 46.7368 13.5433C46.8402 13.4381 46.9847 13.4024 47.1228 13.3736C49.4309 12.8932 52.8754 13.2938 54.3212 14.0205C54.897 14.3093 53.688 15.6518 53.3876 15.971C53.2823 16.0819 51.4726 17.8513 50.9004 18.6099Z" fill="#FFCA28"/>
<path d="M50.1433 18.5867C49.6636 17.4943 49.5522 16.6982 49.3941 15.4907C49.3128 14.8772 48.9708 13.1703 48.4096 13.2006C47.9577 13.234 47.5235 13.2894 47.1242 13.3739C46.9861 13.4027 46.8416 13.4384 46.7381 13.5436C46.6505 13.6336 46.6865 14.0709 47.2717 15.0066C47.7733 15.8062 48.4893 16.9241 48.5988 17.1772C49.0903 18.3119 49.9051 19.2429 50.1946 19.2277C50.4008 19.2185 50.2542 18.84 50.1433 18.5867Z" fill="#E2A610"/>
<path opacity="0.6" d="M53.5278 17.8782C54.0261 17.3718 54.4226 16.6719 54.3406 15.9637C54.2538 15.2167 53.5538 15.3718 53.3023 15.5421C52.5012 16.085 52.6553 16.8633 52.0081 17.6802C51.8977 17.8204 51.4475 18.2518 51.4861 18.5459C51.5094 18.7205 51.9035 18.8368 52.6575 18.5228C52.9897 18.3834 53.2716 18.1369 53.5278 17.8782ZM52.6605 24.168C52.5053 23.7223 52.2355 22.717 52.6887 22.5801C53.1421 22.4418 53.7443 23.1139 54.0064 23.7652C54.2684 24.4165 54.182 25.2505 53.7189 25.2314C53.2559 25.2123 52.8662 24.7577 52.6605 24.168Z" fill="white"/>
</g>
</g>
<defs>
<linearGradient id="paint0_linear_471_1448" x1="31.5641" y1="-1.25781" x2="31.5641" y2="69.2204" gradientUnits="userSpaceOnUse">
<stop stop-color="#8CC7F9"/>
<stop offset="1" stop-color="#CEE2FB"/>
</linearGradient>
<clipPath id="clip0_471_1448">
<rect width="64" height="64" rx="12" fill="white"/>
</clipPath>
<clipPath id="clip1_471_1448">
<rect width="18.8838" height="18.8838" fill="white" transform="translate(59.0117 30.1819) rotate(-175.999)"/>
</clipPath>
</defs>
</svg>
