<svg width="42" height="42" viewBox="0 0 42 42" fill="none" xmlns="http://www.w3.org/2000/svg">
<path d="M8.75 26.75C12.3414 26.75 15.25 29.6586 15.25 33.25C15.25 35.1983 14.3903 36.9356 13.041 38.123C11.8837 39.1337 10.3889 39.75 8.75 39.75C5.15864 39.75 2.25 36.8414 2.25 33.25C2.25 31.2014 3.19217 29.3667 4.68555 28.1816L4.68652 28.1807C5.81006 27.2851 7.22401 26.75 8.75 26.75ZM9.1875 29.25C8.25823 29.25 7.47177 29.97 7.39746 30.8887L7.39258 31.0625V32.667L6.0791 33.4502C5.20243 33.9644 4.94899 35.0787 5.44824 35.9346L5.45312 35.9424C5.7923 36.4996 6.39474 36.8125 7 36.8125C7.29333 36.8125 7.63211 36.7452 7.93848 36.5479L7.93945 36.5488L10.124 35.2383C10.6657 34.9182 11 34.3142 11 33.6875V31.0625C11 30.0689 10.1811 29.25 9.1875 29.25Z" fill="white" stroke="white"/>
<path d="M25.9875 6.91289V13.5629H23.3625V6.91289C23.3625 6.44039 22.9425 6.21289 22.6625 6.21289C22.575 6.21289 22.4875 6.23039 22.4 6.26539L8.5225 11.4979C7.595 11.8479 7 12.7229 7 13.7204V14.8929C5.4075 16.0829 4.375 17.9904 4.375 20.1429V13.7204C4.375 11.6379 5.6525 9.78289 7.595 9.04789L21.49 3.79789C21.875 3.65789 22.2775 3.58789 22.6625 3.58789C24.4125 3.58789 25.9875 5.00539 25.9875 6.91289Z" fill="white"/>
<path d="M37.6249 25.375V27.125C37.6249 27.5975 37.2574 27.9825 36.7674 28H34.2124C33.2849 28 32.4449 27.3175 32.3749 26.4075C32.3224 25.865 32.5324 25.3575 32.8824 25.0075C33.1974 24.675 33.6349 24.5 34.1074 24.5H36.7499C37.2574 24.5175 37.6249 24.9025 37.6249 25.375Z" fill="white"/>
<path d="M34.09 22.6625H35.875C36.8375 22.6625 37.625 21.875 37.625 20.9125V20.1425C37.625 16.52 34.6675 13.5625 31.045 13.5625H10.955C9.4675 13.5625 8.1025 14.0525 7 14.8925C5.4075 16.0825 4.375 17.99 4.375 20.1425V23.2575C4.375 23.9225 5.075 24.3425 5.705 24.1325C6.685 23.8 7.7175 23.625 8.75 23.625C14.0525 23.625 18.375 27.9475 18.375 33.25C18.375 34.51 18.0425 35.8925 17.5175 37.1175C17.2375 37.7475 17.675 38.5 18.3575 38.5H31.045C34.6675 38.5 37.625 35.5425 37.625 31.92V31.5875C37.625 30.625 36.8375 29.8375 35.875 29.8375H34.3525C32.6725 29.8375 31.0625 28.805 30.625 27.1775C30.275 25.8475 30.695 24.5525 31.57 23.7125C32.2175 23.0475 33.11 22.6625 34.09 22.6625ZM24.5 22.3125H15.75C15.0325 22.3125 14.4375 21.7175 14.4375 21C14.4375 20.2825 15.0325 19.6875 15.75 19.6875H24.5C25.2175 19.6875 25.8125 20.2825 25.8125 21C25.8125 21.7175 25.2175 22.3125 24.5 22.3125Z" fill="white"/>
</svg>
