<svg width="42" height="42" viewBox="0 0 42 42" fill="none" xmlns="http://www.w3.org/2000/svg">
<path d="M22.6621 4.08789C24.1515 4.08789 25.4873 5.297 25.4873 6.91309V13.0625H23.8623V6.91309C23.8623 6.51164 23.6778 6.20092 23.4365 6.00098C23.2089 5.81249 22.9212 5.71289 22.6621 5.71289C22.5064 5.71294 22.3557 5.74404 22.2139 5.80078L8.3457 11.0303C7.2197 11.4553 6.5 12.5196 6.5 13.7207V14.6514C5.85521 15.1709 5.30347 15.802 4.875 16.5176V13.7207L4.88867 13.3711C5.02147 11.6402 6.13386 10.1355 7.77148 9.51562L21.667 4.26562C21.9962 4.14671 22.3385 4.08794 22.6621 4.08789Z" fill="white" stroke="white"/>
<path d="M34.1072 25H36.7332L36.821 25.0107C37.0144 25.0524 37.1248 25.2057 37.1248 25.375V27.125C37.1248 27.3248 36.9741 27.4919 36.7498 27.5H34.2126C33.5067 27.5 32.9208 26.9809 32.8738 26.3691L32.8728 26.3594L32.8669 26.2168C32.8729 25.9346 32.9775 25.6699 33.1462 25.4609L33.2361 25.3613L33.2458 25.3516C33.4582 25.1275 33.7598 25.0001 34.1072 25Z" fill="white" stroke="white"/>
<path d="M8.75 26.25C7.105 26.25 5.5825 26.8275 4.375 27.79C2.765 29.0675 1.75 31.045 1.75 33.25C1.75 34.5625 2.1175 35.805 2.765 36.855C3.9725 38.885 6.195 40.25 8.75 40.25C10.5175 40.25 12.1275 39.6025 13.3525 38.5C13.895 38.045 14.3675 37.485 14.735 36.855C15.3825 35.805 15.75 34.5625 15.75 33.25C15.75 29.3825 12.6175 26.25 8.75 26.25ZM5.985 32.305C5.4775 31.7975 5.4775 30.9575 5.985 30.45C6.51 29.9425 7.3325 29.9425 7.8575 30.45L8.7675 31.3775L9.6425 30.485C10.1675 29.9775 10.99 29.9775 11.515 30.485C12.0225 31.01 12.0225 31.8325 11.515 32.3575L10.6225 33.2325L11.55 34.1425C12.0575 34.6675 12.0575 35.49 11.55 36.015C11.2875 36.26 10.955 36.3825 10.6225 36.3825C10.29 36.3825 9.9575 36.26 9.695 36.015L8.7675 35.0875L7.805 36.05C7.5425 36.3125 7.21 36.435 6.8775 36.435C6.545 36.435 6.2125 36.3125 5.95 36.05C5.4425 35.5425 5.4425 34.7025 5.95 34.195L6.9125 33.2325L5.985 32.305Z" fill="white"/>
<path d="M34.09 22.6625H35.875C36.8375 22.6625 37.625 21.875 37.625 20.9125V20.1425C37.625 16.52 34.6675 13.5625 31.045 13.5625H10.955C9.4675 13.5625 8.1025 14.0525 7 14.8925C5.4075 16.0825 4.375 17.99 4.375 20.1425V23.2575C4.375 23.9225 5.075 24.3425 5.705 24.1325C6.685 23.8 7.7175 23.625 8.75 23.625C14.0525 23.625 18.375 27.9475 18.375 33.25C18.375 34.51 18.0425 35.8925 17.5175 37.1175C17.2375 37.7475 17.675 38.5 18.3575 38.5H31.045C34.6675 38.5 37.625 35.5425 37.625 31.92V31.5875C37.625 30.625 36.8375 29.8375 35.875 29.8375H34.3525C32.6725 29.8375 31.0625 28.805 30.625 27.1775C30.275 25.8475 30.695 24.5525 31.57 23.7125C32.2175 23.0475 33.11 22.6625 34.09 22.6625ZM24.5 22.3125H15.75C15.0325 22.3125 14.4375 21.7175 14.4375 21C14.4375 20.2825 15.0325 19.6875 15.75 19.6875H24.5C25.2175 19.6875 25.8125 20.2825 25.8125 21C25.8125 21.7175 25.2175 22.3125 24.5 22.3125Z" fill="white"/>
</svg>
