<svg width="32" height="32" viewBox="0 0 32 32" fill="none" xmlns="http://www.w3.org/2000/svg">
<path d="M3.44006 25.3467L3.4134 25.3733C3.0534 24.5867 2.82673 23.6933 2.7334 22.7067C2.82673 23.68 3.08006 24.56 3.44006 25.3467Z" fill="#09093C"/>
<path d="M12 13.84C13.7526 13.84 15.1733 12.4192 15.1733 10.6666C15.1733 8.91404 13.7526 7.49329 12 7.49329C10.2474 7.49329 8.82666 8.91404 8.82666 10.6666C8.82666 12.4192 10.2474 13.84 12 13.84Z" fill="#09093C"/>
<path d="M21.5865 2.66663H10.4132C5.55984 2.66663 2.6665 5.55996 2.6665 10.4133V21.5866C2.6665 23.04 2.91984 24.3066 3.41317 25.3733C4.55984 27.9066 7.01317 29.3333 10.4132 29.3333H21.5865C26.4398 29.3333 29.3332 26.44 29.3332 21.5866V18.5333V10.4133C29.3332 5.55996 26.4398 2.66663 21.5865 2.66663ZM27.1598 16.6666C26.1198 15.7733 24.4398 15.7733 23.3998 16.6666L17.8532 21.4266C16.8132 22.32 15.1332 22.32 14.0932 21.4266L13.6398 21.0533C12.6932 20.2266 11.1865 20.1466 10.1198 20.8666L5.13317 24.2133C4.83984 23.4666 4.6665 22.6 4.6665 21.5866V10.4133C4.6665 6.65329 6.65317 4.66663 10.4132 4.66663H21.5865C25.3465 4.66663 27.3332 6.65329 27.3332 10.4133V16.8133L27.1598 16.6666Z" fill="#09093C"/>
</svg>
