<svg width="64" height="64" viewBox="0 0 64 64" fill="none" xmlns="http://www.w3.org/2000/svg">
<g clip-path="url(#clip0_471_1476)">
<rect width="64" height="64" rx="12" fill="white"/>
<rect x="-2.9978" y="-1.25781" width="69.1249" height="70.4782" fill="url(#paint0_linear_471_1476)"/>
<rect x="-5.74121" y="41.6178" width="80.4213" height="31.7531" fill="#27AFFF"/>
<ellipse cx="26.5275" cy="52.0579" rx="25.0296" ry="5.92328" transform="rotate(-11.2516 26.5275 52.0579)" fill="#2189C6"/>
<path d="M47.8859 6.34828C47.6159 8.39471 48.9099 10.3226 50.9062 10.8478C48.8597 10.5779 46.9319 11.8719 46.4066 13.8681C46.6766 11.8217 45.3825 9.89383 43.3863 9.36855C45.4328 9.63854 47.3606 8.34449 47.8859 6.34828Z" fill="#FFE459"/>
<path d="M35.332 17.0099L9.51476 23.4899C9.09417 23.5955 8.7904 23.9494 8.76339 24.3822C8.50699 28.491 7.31486 49.1366 8.80916 55.6848L37.2609 46.2614C37.6877 46.12 37.9677 45.7111 37.9452 45.262L36.5742 17.9297C36.5426 17.3001 35.9434 16.8564 35.332 17.0099Z" fill="#2F3E55"/>
<path d="M36.2265 17.0099L10.428 23.4852C9.99843 23.593 9.69169 23.9584 9.67599 24.4009C9.52939 28.5344 8.93779 48.9564 11.2843 55.5143L38.1667 46.2667C38.5879 46.1218 38.8625 45.7159 38.8402 45.271L37.4687 17.9297C37.4371 17.3001 36.8379 16.8564 36.2265 17.0099Z" fill="#5274AB"/>
<path d="M37.3825 16.9924L11.5468 23.4771C11.1021 23.5887 10.7906 23.9746 10.7944 24.4331C10.8293 28.5948 11.1569 48.5861 14.2385 56.4481L41.0756 47.2161C41.5178 47.064 41.7955 46.6257 41.7442 46.1608L38.6199 17.8526C38.5534 17.2501 37.9705 16.8448 37.3825 16.9924Z" fill="#527FC6"/>
<path d="M39.2183 16.9656L12.7661 23.49C12.3397 23.5952 12.0332 23.9536 12.0188 24.3926C11.8945 28.1689 11.6935 45.8449 18.1776 57.4941L45.4311 48.2813C45.9047 48.1212 46.1873 47.636 46.0929 47.1451L40.4398 17.7477C40.3316 17.1853 39.7743 16.8285 39.2183 16.9656Z" fill="#9FBDED"/>
<path d="M39.7785 17.2379L13.8095 23.7561C13.3602 23.8689 13.048 24.2655 13.0647 24.7285C13.2028 28.5643 14.1877 45.7048 20.9166 57.2123L47.6407 48.0193C48.1322 47.8502 48.4123 47.3327 48.2849 46.8287L40.9915 17.9629C40.8563 17.428 40.3136 17.1036 39.7785 17.2379Z" fill="#D8E3F5"/>
<path d="M40.7053 17.4691L14.7481 23.9843C14.275 24.103 13.9575 24.5418 14.0062 25.0272C14.3972 28.9194 16.4049 45.5389 23.0898 56.971L49.7753 47.7912C50.2826 47.6167 50.5618 47.0729 50.408 46.5589L41.9068 18.1523C41.7534 17.6399 41.224 17.3389 40.7053 17.4691Z" fill="#EDF1F6"/>
<path d="M17.665 34.6545L41.1086 27.8396" stroke="#D1E5FE"/>
<path d="M20.2783 40.7961L43.7219 33.9812" stroke="#D1E5FE"/>
<path d="M22.8135 48.344L46.257 41.5291" stroke="#D1E5FE"/>
<path d="M24.3008 27.8396C24.3008 27.8396 28.4452 45.5045 32.25 51.7551" stroke="#D1E5FE"/>
<path d="M19.2715 31.3202L19.1403 30.7623C19.0172 30.2394 19.3293 29.7127 19.8471 29.5695L21.4024 29.1392C21.9389 28.9908 22.4933 29.3091 22.6357 29.8472L22.7845 30.4093C22.9253 30.941 22.6102 31.4866 22.0792 31.6304L20.5064 32.0564C19.9607 32.2042 19.401 31.8705 19.2715 31.3202Z" fill="#D1E5FE"/>
<path d="M27.4102 29.0031L27.2789 28.4452C27.1559 27.9223 27.468 27.3955 27.9857 27.2523L29.5411 26.8221C30.0776 26.6737 30.632 26.9919 30.7744 27.53L30.9232 28.0921C31.064 28.6239 30.7488 29.1695 30.2179 29.3133L28.645 29.7392C28.0993 29.887 27.5397 29.5534 27.4102 29.0031Z" fill="#D1E5FE"/>
<path d="M35.8331 26.7677L35.7018 26.2098C35.5787 25.6869 35.8908 25.1602 36.4086 25.017L37.9639 24.5867C38.5004 24.4383 39.0548 24.7566 39.1973 25.2947L39.3461 25.8568C39.4868 26.3885 39.1717 26.9341 38.6408 27.0779L37.0679 27.5039C36.5222 27.6517 35.9626 27.318 35.8331 26.7677Z" fill="#D1E5FE"/>
<path d="M37.0801 32.7221L36.9489 32.1642C36.8258 31.6413 37.1379 31.1145 37.6557 30.9713L39.211 30.5411C39.7475 30.3927 40.3019 30.7109 40.4443 31.249L40.5931 31.8111C40.7339 32.3429 40.4188 32.8885 39.8878 33.0322L38.315 33.4582C37.7692 33.606 37.2096 33.2724 37.0801 32.7221Z" fill="#D1E5FE"/>
<path d="M21.1058 37.6498L20.9745 37.0919C20.8514 36.569 21.1635 36.0423 21.6813 35.8991L23.2366 35.4688C23.7731 35.3204 24.3275 35.6387 24.47 36.1768L24.6188 36.7389C24.7595 37.2706 24.4444 37.8162 23.9135 37.96L22.3406 38.386C21.7949 38.5338 21.2353 38.2001 21.1058 37.6498Z" fill="#D1E5FE"/>
<path d="M29.1329 35.1073L29.0016 34.5494C28.8785 34.0265 29.1906 33.4998 29.7084 33.3566L31.2637 32.9263C31.8002 32.7779 32.3546 33.0962 32.4971 33.6343L32.6459 34.1964C32.7866 34.7281 32.4715 35.2737 31.9406 35.4175L30.3677 35.8435C29.822 35.9913 29.2624 35.6576 29.1329 35.1073Z" fill="#D1E5FE"/>
<path d="M33.252 49.066L33.1207 48.5082C32.9977 47.9852 33.3098 47.4585 33.8275 47.3153L35.3829 46.8851C35.9194 46.7367 36.4738 47.0549 36.6162 47.593L36.765 48.1551C36.9058 48.6869 36.5906 49.2325 36.0597 49.3762L34.4868 49.8022C33.9411 49.95 33.3815 49.6164 33.252 49.066Z" fill="#D1E5FE"/>
<path d="M42.1836 45.983L42.0524 45.4252C41.9293 44.9022 42.2414 44.3755 42.7592 44.2323L44.3145 43.8021C44.851 43.6537 45.4054 43.9719 45.5478 44.51L45.6966 45.0721C45.8374 45.6038 45.5223 46.1494 44.9913 46.2932L43.4185 46.7192C42.8728 46.867 42.3131 46.5334 42.1836 45.983Z" fill="#D1E5FE"/>
<path d="M25.3516 51.4909L25.2203 50.933C25.0973 50.41 25.4094 49.8833 25.9271 49.7401L27.4825 49.3099C28.019 49.1615 28.5734 49.4797 28.7158 50.0178L28.8646 50.5799C29.0054 51.1117 28.6902 51.6573 28.1593 51.801L26.5864 52.227C26.0407 52.3748 25.4811 52.0412 25.3516 51.4909Z" fill="#D1E5FE"/>
<path d="M31.0459 42.0868L30.9147 41.5289C30.7916 41.006 31.1037 40.4793 31.6215 40.3361L33.1768 39.9058C33.7133 39.7574 34.2677 40.0757 34.4102 40.6138L34.5589 41.1759C34.6997 41.7076 34.3846 42.2532 33.8536 42.397L32.2808 42.823C31.7351 42.9708 31.1754 42.6371 31.0459 42.0868Z" fill="#D1E5FE"/>
<path d="M39.7071 39.5543L39.5758 38.9964C39.4528 38.4735 39.7649 37.9468 40.2826 37.8036L41.838 37.3733C42.3744 37.2249 42.9288 37.5432 43.0713 38.0813L43.2201 38.6434C43.3608 39.1751 43.0457 39.7207 42.5148 39.8645L40.9419 40.2905C40.3962 40.4383 39.8366 40.1047 39.7071 39.5543Z" fill="#D1E5FE"/>
<path d="M22.7598 44.2545L22.6285 43.6966C22.5055 43.1737 22.8176 42.647 23.3353 42.5038L24.8907 42.0735C25.4272 41.9251 25.9816 42.2434 26.124 42.7815L26.2728 43.3436C26.4136 43.8753 26.0984 44.4209 25.5675 44.5647L23.9946 44.9907C23.4489 45.1385 22.8893 44.8049 22.7598 44.2545Z" fill="#D1E5FE"/>
<path d="M32.7539 25.4309C32.7539 25.4309 36.8984 43.0958 40.7031 49.3464" stroke="#D1E5FE"/>
<path d="M23.3887 34.5972C23.4707 34.6956 23.0937 35.2924 23.0646 35.3516C22.7094 36.0734 22.3677 36.8018 22.0003 37.5175C21.6468 38.206 21.1965 38.89 20.9102 39.6059" stroke="#5AA3FF" stroke-linecap="round"/>
<path d="M19.7734 35.8364C20.4986 35.6716 25.4359 37.937 25.2986 38.2117" stroke="#5AA3FF" stroke-linecap="round"/>
<path d="M42.4507 35.9313C42.0449 35.9313 41.6915 35.7349 41.2776 35.7349C40.8908 35.7349 40.5446 35.829 40.1919 35.9913C39.7118 36.2121 39.2531 36.7409 38.9889 37.2107C38.8658 37.4295 38.6874 37.7356 38.6697 37.9827C38.6616 38.097 38.5866 38.1854 38.5497 38.2909C38.4558 38.5594 38.422 39.0218 38.5361 39.2812C38.7801 39.8359 39.2594 40.46 39.75 40.8525C40.1941 41.2078 40.4535 41.3033 41.0267 41.3708C41.8216 41.4643 42.7188 41.3957 43.3345 40.8416C43.4664 40.7229 43.6044 40.5934 43.7519 40.4951C44.0702 40.2829 44.1599 39.7946 44.3057 39.4667C44.4118 39.2279 44.3657 38.8418 44.3657 38.5828C44.3657 38.2182 44.2675 37.856 44.2675 37.4998C44.2675 37.3266 44.241 37.2041 44.1693 37.0606" stroke="#5AA3FF" stroke-linecap="round"/>
<circle cx="37.5403" cy="20.1388" r="1.58914" fill="#2F3E55"/>
<path d="M35.6162 13.1945C36.6274 13.1945 37.4849 13.7628 38.0645 14.5646C38.6446 15.3672 38.9833 16.4433 38.9834 17.6027C38.9834 18.076 38.8318 18.6536 38.6748 19.1368C38.5118 19.6386 38.3166 20.1174 38.1797 20.422C38.0325 20.7493 37.6477 20.8951 37.3203 20.7482C36.9929 20.601 36.846 20.2162 36.9932 19.8888C37.115 19.6179 37.2927 19.184 37.4385 18.7355C37.5903 18.2683 37.6836 17.8569 37.6836 17.6027C37.6835 16.6865 37.4138 15.8839 37.0107 15.3263C36.6071 14.7678 36.1054 14.4943 35.6162 14.4943C35.1271 14.4944 34.6262 14.768 34.2227 15.3263C33.8394 15.8566 33.5795 16.6085 33.5547 17.4689L32.2803 17.7892C32.2625 17.7299 32.25 17.6677 32.25 17.6027C32.2501 16.4433 32.5888 15.3672 33.1689 14.5646C33.7484 13.7629 34.6053 13.1946 35.6162 13.1945Z" fill="#8B3632"/>
<ellipse cx="31.3108" cy="21.7659" rx="1.58914" ry="1.55113" fill="#2F3E55"/>
<path d="M29.3867 14.6076C30.4076 14.6076 31.2654 15.2007 31.8408 16.0236C32.4175 16.8486 32.7538 17.9532 32.7539 19.1428C32.7539 19.6057 32.6378 20.1803 32.5039 20.6828C32.3674 21.1951 32.1949 21.6959 32.0498 22.0295C31.9066 22.3586 31.5235 22.5095 31.1943 22.3664C30.8653 22.2231 30.7153 21.84 30.8584 21.5109C30.9721 21.2495 31.1243 20.8121 31.248 20.3478C31.3743 19.8739 31.4541 19.4319 31.4541 19.1428C31.454 18.1868 31.1817 17.3489 30.7754 16.7678C30.3676 16.1846 29.8662 15.9074 29.3867 15.9074C28.9074 15.9076 28.4067 16.1848 27.999 16.7678C27.6111 17.3226 27.3475 18.1116 27.3242 19.0139L26.0518 19.3332C26.0333 19.2728 26.0205 19.2092 26.0205 19.1428C26.0206 17.9532 26.3569 16.8486 26.9336 16.0236C27.5089 15.2008 28.3661 14.6078 29.3867 14.6076Z" fill="#9F413C"/>
<circle cx="24.5227" cy="23.9042" r="1.58914" fill="#2F3E55"/>
<path d="M22.4087 16.5865C23.4695 16.5865 24.3745 17.1766 24.9897 18.0192C25.6053 18.8622 25.9663 19.9952 25.9663 21.2174C25.9663 21.6752 25.8749 22.2243 25.7563 22.7203C25.6372 23.2188 25.478 23.7144 25.3169 24.069C25.1684 24.3957 24.7833 24.5404 24.4565 24.3922C24.1297 24.2437 23.9848 23.8577 24.1333 23.5309C24.2491 23.2759 24.3847 22.8653 24.4917 22.4176C24.5993 21.9675 24.6655 21.5302 24.6655 21.2174C24.6655 20.2413 24.3764 19.3835 23.9399 18.7858C23.503 18.1875 22.9535 17.8864 22.4087 17.8864C21.864 17.8864 21.3153 18.1877 20.8784 18.7858C20.5025 19.3005 20.2354 20.0081 20.1685 20.818L18.853 21.149C18.8662 19.9529 19.2245 18.8465 19.8286 18.0192C20.4439 17.1768 21.348 16.5866 22.4087 16.5865Z" fill="#A44440"/>
<circle cx="18.2932" cy="25.517" r="1.58914" fill="#2F3E55"/>
<path d="M15.9639 17.8998C17.0765 17.8998 18.0341 18.5028 18.6914 19.3793C19.3486 20.2555 19.7363 21.4367 19.7363 22.7133C19.7363 23.1758 19.6617 23.7344 19.5527 24.2513C19.4444 24.7653 19.2914 25.2884 19.1133 25.6703C18.9615 25.9956 18.5743 26.1365 18.249 25.9847C17.9238 25.8329 17.7828 25.4458 17.9346 25.1205C18.0537 24.8651 18.182 24.45 18.2803 23.9838C18.3779 23.5206 18.4355 23.0564 18.4355 22.7133C18.4355 21.6908 18.1241 20.79 17.6514 20.1595C17.1787 19.5294 16.5756 19.1996 15.9639 19.1996C15.3521 19.1996 14.749 19.5293 14.2764 20.1595C13.8383 20.7437 13.5407 21.5595 13.499 22.4896L12.2012 22.8158C12.1958 22.7823 12.1914 22.7482 12.1914 22.7133C12.1914 21.4366 12.5791 20.2556 13.2363 19.3793C13.8937 18.5028 14.8512 17.8998 15.9639 17.8998Z" fill="#A7443F"/>
<path d="M39.6003 35.7349L41.045 32.3745L42.6467 33.5993L39.6003 35.7349Z" fill="#B37112"/>
<path d="M42.7265 34.0547L40.5652 32.4064C41.601 31.0091 42.2972 29.3898 42.5984 27.6767L42.7265 26.9481L45.6203 27.9005L47.4519 30.5746L46.754 30.8555C45.1297 31.5089 43.7305 32.6204 42.7265 34.0547Z" fill="#424A4F"/>
<path d="M54.0053 13.4177L42.0652 27.171L43.0835 27.5143C44.5814 28.0192 45.8962 28.9566 46.8618 30.2082L47.4992 31.0342L57.9094 16.6003C56.9013 13.4289 54.0053 13.4177 54.0053 13.4177Z" fill="#F9AC30"/>
<mask id="mask0_471_1476" style="mask-type:alpha" maskUnits="userSpaceOnUse" x="42" y="13" width="16" height="19">
<path d="M54.0053 13.4177L42.0652 27.171L43.0835 27.5143C44.5814 28.0192 45.8962 28.9566 46.8618 30.2082L47.4992 31.0342L57.9094 16.6003C56.9013 13.4289 54.0053 13.4177 54.0053 13.4177Z" fill="#F9AC30"/>
</mask>
<g mask="url(#mask0_471_1476)">
<path d="M58.5023 13.6159L44.7907 32.2366L47.5839 35.6221L61.2954 17.1707L58.5023 13.6159Z" fill="#DD8D19"/>
</g>
</g>
<defs>
<linearGradient id="paint0_linear_471_1476" x1="31.5646" y1="-1.25781" x2="31.5646" y2="69.2204" gradientUnits="userSpaceOnUse">
<stop stop-color="#8CC7F9"/>
<stop offset="1" stop-color="#CEE2FB"/>
</linearGradient>
<clipPath id="clip0_471_1476">
<rect width="64" height="64" rx="12" fill="white"/>
</clipPath>
</defs>
</svg>
