<svg width="56" height="56" viewBox="0 0 56 56" fill="none" xmlns="http://www.w3.org/2000/svg">
<mask id="mask0_2_563" style="mask-type:alpha" maskUnits="userSpaceOnUse" x="0" y="0" width="56" height="56">
<rect width="56" height="56" rx="8" fill="#D9D9D9"/>
</mask>
<g mask="url(#mask0_2_563)">
<rect x="-2.81055" y="-5.57349" width="60.4843" height="61.6685" fill="url(#paint0_linear_2_563)"/>
<rect x="-5.21094" y="35.8784" width="70.3687" height="27.7839" fill="#27AFFF"/>
<ellipse cx="26.7647" cy="49.1894" rx="16.3826" ry="2.26074" transform="rotate(-0.650368 26.7647 49.1894)" fill="#2189C6"/>
<rect width="39.9454" height="28.7724" rx="5" transform="matrix(0.153707 0.988117 -0.996073 0.0885397 36.7988 9.09375)" fill="#7190C5"/>
<rect x="-0.421183" y="0.538328" width="38.9454" height="27.7724" rx="4.5" transform="matrix(0.153707 0.988117 -0.996073 0.0885397 37.545 9.03721)" fill="white" stroke="#BACDED"/>
<rect width="17.5808" height="20.342" rx="2" transform="matrix(0.153707 0.988117 -0.996073 0.0885397 34.1504 12.7305)" fill="#EDF5FE"/>
<rect width="8.63835" height="12.8601" rx="2" transform="matrix(0.996073 -0.0885398 0.153707 0.988117 28.5586 32.8564)" fill="#EDF5FE"/>
<rect width="9.02558" height="12.8601" rx="2" transform="matrix(0.996073 -0.0885398 0.153707 0.988117 16.9004 33.8926)" fill="#EDF5FE"/>
<path d="M33.3106 35.365C32.4606 35.4405 31.8762 36.1875 32.0073 37.0307C32.136 37.8579 32.8923 38.4693 33.7468 38.4227C33.7722 38.4172 33.7982 38.4149 33.8182 38.4164C33.8247 38.4158 33.8279 38.4155 33.8344 38.415C33.8376 38.4147 33.8376 38.4147 33.8409 38.4144C34.6669 38.3116 35.2149 37.5842 35.0895 36.7567C34.9583 35.9135 34.1606 35.2894 33.3106 35.365Z" fill="#B9D5F8"/>
<path d="M21.8458 36.384C20.9957 36.4596 20.4113 37.2065 20.5425 38.0498C20.6712 38.8769 21.4274 39.4884 22.2819 39.4418C22.3074 39.4363 22.3334 39.434 22.3533 39.4354C22.3598 39.4349 22.3631 39.4346 22.3695 39.434C22.3728 39.4337 22.3728 39.4337 22.376 39.4334C23.2021 39.3306 23.7501 38.6032 23.6246 37.7758C23.4935 36.9326 22.6958 36.3085 21.8458 36.384Z" fill="#B9D5F8"/>
<path d="M35.5665 39.1287C34.5682 38.6106 33.092 38.7418 32.2734 39.4215C31.904 39.7317 31.7344 40.122 31.796 40.5178C31.8576 40.9137 32.1418 41.2604 32.5926 41.4944C33.0939 41.7566 33.7144 41.8548 34.3113 41.8017C34.9083 41.7487 35.4817 41.5443 35.8889 41.2014C36.2551 40.8915 36.4251 40.5044 36.3631 40.1053C36.2982 39.7098 36.0173 39.3628 35.5665 39.1287Z" fill="#B9D5F8"/>
<path d="M24.1016 40.1478C23.1033 39.6296 21.6271 39.7608 20.8086 40.4405C20.4391 40.7507 20.2696 41.141 20.3312 41.5369C20.3927 41.9327 20.6769 42.2795 21.1278 42.5135C21.629 42.7756 22.2495 42.8738 22.8465 42.8208C23.4435 42.7677 24.0169 42.5634 24.424 42.2205C24.7903 41.9106 24.9603 41.5235 24.8982 41.1244C24.8334 40.7288 24.5525 40.3818 24.1016 40.1478Z" fill="#B9D5F8"/>
<path d="M24.1628 16.6574C22.582 16.7979 21.4952 18.187 21.7391 19.7551C21.9784 21.2933 23.3848 22.4304 24.9739 22.3438C25.0212 22.3335 25.0695 22.3292 25.1066 22.332C25.1187 22.3309 25.1247 22.3304 25.1368 22.3293C25.1428 22.3288 25.1428 22.3288 25.1489 22.3282C26.685 22.1371 27.7041 20.7843 27.4709 19.2456C27.2269 17.6775 25.7435 16.5169 24.1628 16.6574Z" fill="#5AA3FF"/>
<path d="M28.3604 23.6566C26.5039 22.693 23.7587 22.937 22.2364 24.201C21.5493 24.7778 21.2341 25.5037 21.3486 26.2398C21.4631 26.976 21.9916 27.6208 22.83 28.056C23.7622 28.5435 24.9161 28.7261 26.0262 28.6275C27.1364 28.5288 28.2028 28.1488 28.9599 27.5111C29.641 26.9348 29.9572 26.2149 29.8418 25.4728C29.7212 24.7371 29.1988 24.0918 28.3604 23.6566Z" fill="#5AA3FF"/>
</g>
<g clip-path="url(#clip0_2_563)">
<path d="M35.9591 14.8397V10.6494H34.3878C33.971 10.6494 33.5713 10.815 33.2766 11.1097C32.982 11.4043 32.8164 11.804 32.8164 12.2208V21.6489C32.8172 21.7461 32.845 21.8413 32.8968 21.9236C32.9487 22.006 33.0224 22.0722 33.1097 22.115C33.1939 22.1533 33.2867 22.1686 33.3787 22.1594C33.4707 22.1502 33.5586 22.1168 33.6335 22.0627L36.331 20.0775H43.3706C43.5692 20.0834 43.7668 20.0484 43.9512 19.9748C44.1357 19.9012 44.3031 19.7905 44.443 19.6496C44.583 19.5087 44.6925 19.3405 44.7648 19.1555C44.8371 18.9706 44.8707 18.7727 44.8634 18.5743V17.9824H39.1018C38.2683 17.9824 37.469 17.6513 36.8796 17.0619C36.2902 16.4725 35.9591 15.6732 35.9591 14.8397Z" fill="#DD8D19"/>
<path d="M48.4796 7.99609H39.5753C39.1585 7.99609 38.7588 8.16165 38.4641 8.45633C38.1695 8.75102 38.0039 9.1507 38.0039 9.56744V15.8528C38.0039 16.2696 38.1695 16.6693 38.4641 16.964C38.7588 17.2586 39.1585 17.4242 39.5753 17.4242H46.6725L49.1762 19.3674C49.2506 19.4225 49.3383 19.4568 49.4303 19.4669C49.5223 19.477 49.6154 19.4626 49.7 19.425C49.7891 19.3826 49.8644 19.3158 49.9173 19.2324C49.9701 19.149 49.9983 19.0524 49.9985 18.9536V9.56744C49.9988 9.15961 49.8404 8.76767 49.557 8.47445C49.2735 8.18122 48.8872 8.00969 48.4796 7.99609Z" fill="#DD8D19"/>
<path d="M48.0068 6.98291H39.1025C38.6857 6.98291 38.2861 7.14846 37.9914 7.44315C37.6967 7.73783 37.5311 8.13751 37.5311 8.55426V14.8397C37.5311 15.2564 37.6967 15.6561 37.9914 15.9508C38.2861 16.2455 38.6857 16.411 39.1025 16.411H46.1997L48.7034 18.3542C48.7779 18.4093 48.8655 18.4436 48.9575 18.4537C49.0496 18.4638 49.1426 18.4494 49.2272 18.4119C49.3163 18.3694 49.3917 18.3026 49.4445 18.2192C49.4973 18.1358 49.5255 18.0392 49.5258 17.9405V8.55426C49.526 8.14643 49.3677 7.75449 49.0842 7.46126C48.8007 7.16804 48.4144 6.9965 48.0068 6.98291Z" fill="#F9AC30"/>
<path fill-rule="evenodd" clip-rule="evenodd" d="M41.3154 13.3979H45.0415V10.6656C45.0415 10.254 44.7079 9.92041 44.2962 9.92041H40.5701V12.6527C40.5701 13.0643 40.9037 13.3979 41.3154 13.3979ZM45.5381 12.4045L47.0285 13.3979V9.92041L45.5383 10.914L45.5381 12.4045Z" fill="white"/>
</g>
<defs>
<linearGradient id="paint0_linear_2_563" x1="27.4316" y1="-5.57349" x2="27.4316" y2="56.095" gradientUnits="userSpaceOnUse">
<stop stop-color="#8CC7F9"/>
<stop offset="1" stop-color="#CEE2FB"/>
</linearGradient>
<clipPath id="clip0_2_563">
<rect width="18.8562" height="18.8562" fill="white" transform="translate(31.7695 4.8877)"/>
</clipPath>
</defs>
</svg>
