<svg width="65" height="71" viewBox="0 0 65 71" fill="none" xmlns="http://www.w3.org/2000/svg">
<mask id="mask0_2_274" style="mask-type:alpha" maskUnits="userSpaceOnUse" x="0" y="7" width="64" height="64">
<rect y="7" width="64" height="64" rx="16" fill="#D9D9D9"/>
</mask>
<g mask="url(#mask0_2_274)">
<rect x="0.0447388" y="6.9845" width="64" height="64" fill="url(#paint0_linear_2_274)"/>
<path d="M57.9671 35.5963C53.4919 32.3741 48.3006 37.5654 47.7635 40.9666H78.1952C78.3742 36.1333 78.052 26.2878 75.331 25.5718C71.9298 24.6767 66.9176 29.689 66.2015 32.1951C63.8744 31.3001 61.3683 29.689 57.9671 35.5963Z" fill="white"/>
<path d="M8.71039 45.6938C13.1856 42.4717 18.3769 47.6629 18.9139 51.0641H-11.5177C-11.6967 46.2309 -11.3745 36.3853 -8.65352 35.6693C-5.25233 34.7743 -0.240068 39.7865 0.475971 42.2927C2.8031 41.3976 5.30923 39.7865 8.71039 45.6938Z" fill="white"/>
<rect x="-4.74432" y="57.3574" width="73.1845" height="22.6872" fill="#27AFFF"/>
<ellipse cx="29.8555" cy="64.7681" rx="19.7082" ry="1.95987" transform="rotate(0.975392 29.8555 64.7681)" fill="#2189C6"/>
<path d="M48.3268 25.1064C49.9836 25.1064 51.3268 26.4496 51.3268 28.1064V54.4297C51.3268 55.2674 50.3586 55.7338 49.7035 55.2117L43.8812 50.5711C43.8005 50.5068 43.7168 50.4469 43.6306 50.3916V34.9968C43.6306 33.3399 42.2875 31.9968 40.6306 31.9968H18.0837V28.1064C18.0837 26.4496 19.4269 25.1064 21.0837 25.1064H48.3268Z" fill="#5FADF5"/>
<path d="M9.07007 37.0999C9.07007 35.443 10.4132 34.0999 12.0701 34.0999H39.3131C40.97 34.0999 42.3131 35.443 42.3131 37.0999V55.9105C42.3131 57.5674 40.97 58.9105 39.3131 58.9105H25.6916H18.3855C17.7061 58.9105 17.0469 59.1411 16.5156 59.5645L10.6934 64.2051C10.0383 64.7272 9.07007 64.2608 9.07007 63.4231L9.07007 58.9105V37.0999Z" fill="#7190C5"/>
<path d="M7.67163 35.7909C7.67163 34.134 9.01478 32.7909 10.6716 32.7909H37.9147C39.5715 32.7909 40.9147 34.134 40.9147 35.7909V54.6016C40.9147 56.2584 39.5715 57.6016 37.9147 57.6016H24.2932H16.987C16.3077 57.6016 15.6484 57.8321 15.1172 58.2556L9.29491 62.8961C8.63986 63.4182 7.67163 62.9518 7.67163 62.1141L7.67163 57.6016V35.7909Z" fill="white"/>
<circle cx="19.3691" cy="41.3" r="1.95133" fill="#5AA3FF"/>
<circle cx="29.0624" cy="41.3" r="1.95133" fill="#5AA3FF"/>
<path d="M17.488 46.8947V46.8947C21.069 51.181 27.6239 51.2793 31.3318 47.1021L31.5159 46.8947" stroke="#5AA3FF" stroke-width="2" stroke-linecap="round"/>
<rect x="6.13062" y="20.2427" width="2.47461" height="8.6928" rx="1.2373" transform="rotate(-37.6903 6.13062 20.2427)" fill="#4F5B5E"/>
<rect x="14.5115" y="17.7959" width="2.47461" height="6.40939" rx="1.2373" transform="rotate(-4.54337 14.5115 17.7959)" fill="#4F5B5E"/>
<rect x="3.40021" y="29.5801" width="2.47461" height="6.40939" rx="1.2373" transform="rotate(-83.4591 3.40021 29.5801)" fill="#4F5B5E"/>
</g>
<path d="M55.6161 19.4266C55.2761 19.5466 54.7161 19.5466 54.3761 19.4266C51.4761 18.4366 44.9961 14.3066 44.9961 7.30655C44.9961 4.21655 47.4861 1.71655 50.5561 1.71655C52.3761 1.71655 53.9861 2.59655 54.9961 3.95655C56.0061 2.59655 57.6261 1.71655 59.4361 1.71655C62.5061 1.71655 64.9961 4.21655 64.9961 7.30655C64.9961 14.3066 58.5161 18.4366 55.6161 19.4266Z" fill="#B9660C"/>
<path d="M54.288 18.1454C53.948 18.2654 53.388 18.2654 53.048 18.1454C50.148 17.1554 43.668 13.0254 43.668 6.02542C43.668 2.93542 46.158 0.435425 49.228 0.435425C51.048 0.435425 52.658 1.31543 53.668 2.67543C54.678 1.31543 56.298 0.435425 58.108 0.435425C61.178 0.435425 63.668 2.93542 63.668 6.02542C63.668 13.0254 57.188 17.1554 54.288 18.1454Z" fill="#FFC85A"/>
<path d="M43.668 10.4263H49.8498L51.8498 4.42627L55.3043 14.2445L58.0316 7.33538L59.3044 10.4263H63.668" stroke="#B9660C" stroke-width="1.65409" stroke-linecap="round" stroke-linejoin="round"/>
<defs>
<linearGradient id="paint0_linear_2_274" x1="32.0447" y1="6.9845" x2="32.0447" y2="58.9248" gradientUnits="userSpaceOnUse">
<stop stop-color="#90C9F9"/>
<stop offset="1" stop-color="#B6D9FA"/>
</linearGradient>
</defs>
</svg>
