<svg width="64" height="72" viewBox="0 0 64 72" fill="none" xmlns="http://www.w3.org/2000/svg">
<mask id="mask0_2_201" style="mask-type:alpha" maskUnits="userSpaceOnUse" x="0" y="8" width="64" height="64">
<rect y="8" width="64" height="64" rx="16" fill="#D9D9D9"/>
</mask>
<g mask="url(#mask0_2_201)">
<rect x="0.0447388" y="7.9845" width="64" height="64" fill="url(#paint0_linear_2_201)"/>
<path d="M57.967 36.5963C53.4918 33.3741 48.3005 38.5654 47.7635 41.9666H78.1951C78.3741 37.1333 78.0519 27.2878 75.3309 26.5718C71.9298 25.6767 66.9175 30.689 66.2015 33.1951C63.8743 32.3001 61.3682 30.689 57.967 36.5963Z" fill="white"/>
<path d="M8.71033 46.6938C13.1855 43.4717 18.3769 48.6629 18.9139 52.0641H-11.5177C-11.6967 47.2309 -11.3745 37.3853 -8.65358 36.6693C-5.2524 35.7743 -0.240129 40.7865 0.47591 43.2927C2.80304 42.3976 5.30917 40.7865 8.71033 46.6938Z" fill="white"/>
<rect x="-4.74432" y="58.3574" width="73.1845" height="22.6872" fill="#27AFFF"/>
<ellipse cx="31.3915" cy="66.3767" rx="9.75264" ry="1.95987" transform="rotate(0.975392 31.3915 66.3767)" fill="#2189C6"/>
<path d="M36.6113 53.9706C37.983 53.9706 39.0734 52.8446 39.391 51.5102C40.1438 48.3469 42.2187 45.5018 44.2899 42.8954C46.4797 40.1399 47.7879 36.6523 47.7879 32.8591C47.7879 23.943 40.56 16.7151 31.6439 16.7151C22.7278 16.7151 15.4998 23.943 15.4998 32.8591C15.4998 36.6523 16.808 40.1399 18.9978 42.8954C21.069 45.5018 23.1439 48.3469 23.8967 51.5102C24.2143 52.8446 25.3048 53.9706 26.6765 53.9706H36.6113Z" fill="white"/>
<path d="M29.2596 52.526V37.8501C29.2596 36.2429 27.9567 34.9399 26.3494 34.9399V34.9399C24.7422 34.9399 23.4393 36.2429 23.4393 37.8501V38.0684C23.4393 39.7961 24.8399 41.1968 26.5677 41.1968H35.8802C37.6079 41.1968 39.0086 39.7961 39.0086 38.0684V37.9455C39.0086 36.2856 37.6629 34.9399 36.003 34.9399V34.9399C34.3431 34.9399 32.9975 36.2856 32.9975 37.9455V52.526" stroke="#5AA3FF" stroke-width="1.91357"/>
<path d="M47.646 30.7241C47.7383 31.4227 47.7876 32.1351 47.7876 32.8589C47.7876 36.652 46.4793 40.1395 44.2896 42.895C42.2183 45.5014 40.144 48.347 39.3911 51.5103C39.0735 52.8447 37.9826 53.9702 36.6109 53.9702H26.6763C25.5653 53.9701 24.6395 53.2315 24.1587 52.2417H35.5103C36.882 52.2417 37.9732 51.1176 38.2583 49.7759C39.0419 46.0891 41.447 42.7844 43.8472 39.7642C45.8709 37.2175 47.2243 34.1155 47.646 30.7241Z" fill="#D8E3F5"/>
<rect x="25.4354" y="55.0848" width="12.4185" height="2.04759" rx="1.02379" fill="#4F5B5E"/>
<rect x="26.1364" y="58.1807" width="11.015" height="2.04759" rx="1.02379" fill="#4F5B5E"/>
<path d="M27.9178 61.8542C27.9178 61.5715 28.147 61.3423 28.4297 61.3423H34.857C35.1397 61.3423 35.3689 61.5715 35.3689 61.8542C35.3689 62.7023 34.6813 63.3899 33.8332 63.3899H29.4535C28.6053 63.3899 27.9178 62.7023 27.9178 61.8542Z" fill="#4F5B5E"/>
<path d="M19.5076 32.8591C19.5076 32.4431 19.5286 32.032 19.5694 31.6268M31.6441 20.7227C26.5324 20.7227 22.1589 23.8828 20.3705 28.3559" stroke="#5AA3FF" stroke-width="2.4837" stroke-linecap="round"/>
<path d="M56.9976 24.5722L61.5892 24.5571L61.84 24.0394L60.5689 21.5651L54.648 21.6003L54.3936 22.1203L55.1224 24.2575L49.4565 24.2648L49.2028 24.7851L57.8722 27.1368L58.1199 26.6128L56.9976 24.5722Z" fill="#FF931E"/>
<path d="M61.8414 24.0365L60.8212 21.0445L54.6458 21.5997L55.3746 23.7369L49.455 24.2645L58.1244 26.6162L57.2499 24.0516L61.8414 24.0365Z" fill="#FFC85A"/>
</g>
<path d="M41.0514 8.59603L41.8478 4.71568L41.3851 4.45095L38.7377 5.27167L37.7261 10.277L38.1904 10.5452L40.412 10.148L39.4181 14.9351L39.8828 15.2026L43.7172 8.11945L43.2478 7.85659L41.0514 8.59603Z" fill="#FF931E"/>
<path d="M41.3822 4.44942L38.2721 5.00541L37.7248 10.2789L39.9463 9.88176L39.4172 14.9364L43.2516 7.85319L40.5858 8.32977L41.3822 4.44942Z" fill="#FFC85A"/>
<path d="M55.0763 9.64252L60.6087 2.86285L59.7038 1.91416L52.3846 1.01692L45.2869 9.77694L46.1928 10.7338L52.0675 12.0524L45.214 20.4056L46.1215 21.3616L62.1258 11.2248L61.2025 10.2734L55.0763 9.64252Z" fill="#FF931E"/>
<path d="M59.699 1.90903L51.4748 0.0630996L45.2831 9.77996L51.1577 11.0985L45.2118 20.4078L61.216 10.271L54.1665 8.6887L59.699 1.90903Z" fill="#FFC85A"/>
<defs>
<linearGradient id="paint0_linear_2_201" x1="32.0447" y1="7.9845" x2="32.0447" y2="59.9248" gradientUnits="userSpaceOnUse">
<stop stop-color="#90C9F9"/>
<stop offset="1" stop-color="#B6D9FA"/>
</linearGradient>
</defs>
</svg>
