<svg width="70" height="73" viewBox="0 0 70 73" fill="none" xmlns="http://www.w3.org/2000/svg">
<mask id="mask0_2_235" style="mask-type:alpha" maskUnits="userSpaceOnUse" x="0" y="9" width="64" height="64">
<rect y="9" width="64" height="64" rx="16" fill="#D9D9D9"/>
</mask>
<g mask="url(#mask0_2_235)">
<rect x="0.0447388" y="8.9845" width="64" height="64" fill="url(#paint0_linear_2_235)"/>
<path d="M57.967 37.5963C53.4918 34.3741 48.3005 39.5654 47.7635 42.9666H78.1951C78.3741 38.1333 78.0519 28.2878 75.3309 27.5718C71.9298 26.6767 66.9175 31.689 66.2015 34.1951C63.8743 33.3001 61.3682 31.689 57.967 37.5963Z" fill="white"/>
<path d="M8.71033 47.6938C13.1855 44.4717 18.3769 49.6629 18.9139 53.0641H-11.5177C-11.6967 48.2309 -11.3745 38.3853 -8.65358 37.6693C-5.2524 36.7743 -0.240129 41.7865 0.47591 44.2927C2.80304 43.3976 5.30917 41.7865 8.71033 47.6938Z" fill="white"/>
<rect x="-4.74432" y="59.3574" width="73.1845" height="22.6872" fill="#27AFFF"/>
<ellipse cx="26.4367" cy="67.8895" rx="23.4619" ry="1.95987" transform="rotate(0.975392 26.4367 67.8895)" fill="#2189C6"/>
<path d="M-6.00586 40.8054L-6.00584 38.7942C-6.00584 38.7942 14.3528 32.0119 23.3382 32.6348L37.4055 60.8726C28.1304 60.8726 16.1654 67.7189 7.95371 70.011L7.54552 70.125L-6.00586 40.8054Z" fill="#2F3956"/>
<path d="M-6.09897 38.7779C-6.09897 38.7779 -11.9366 40.7832 -4.39558 38.1928C3.14549 35.6024 14.0475 29.3456 23.033 29.9685L37.0169 59.934C27.7418 59.934 16.5048 66.3374 8.29313 68.6295L7.88494 68.7435L-6.09897 38.7779Z" fill="#4E5771"/>
<path d="M-5.06381 36.725C-5.06381 36.725 -10.9015 38.7302 -3.36042 36.1399C4.18065 33.5495 13.8432 29.2759 22.8286 29.8988L36.8125 59.8643C27.5374 59.8643 17.54 64.2845 9.32829 66.5766L8.9201 66.6905L-5.06381 36.725Z" fill="#72ADF7"/>
<path d="M-4.50919 34.8378C-4.50919 34.8378 -10.3469 36.8431 -2.80579 34.2527C4.73528 31.6623 13.5216 28.9649 22.5071 29.5878L36.491 59.5533C27.2158 59.5533 18.0946 62.3973 9.88292 64.6894L9.47473 64.8034L-4.50919 34.8378Z" fill="#D1E5FE"/>
<path d="M-4.26694 32.7627C-4.26694 32.7627 -10.1046 34.768 -2.56354 32.1776C4.97752 29.5872 13.5203 28.5702 22.5057 29.193L36.4897 59.1586C27.2145 59.1586 18.3368 60.3222 10.1252 62.6143L9.71698 62.7282L-4.26694 32.7627Z" fill="#FAFBFB"/>
<path d="M23.8107 31.5839L23.8107 29.5728C23.8107 29.5728 37.274 29.6857 46.2595 30.3085L60.3268 58.5464C51.0517 58.5464 45.9819 58.4975 37.7702 60.7896L37.362 60.9035L23.8107 31.5839Z" fill="#2F3956"/>
<path d="M22.985 30.0466C22.985 30.0466 17.1473 32.0519 24.6884 29.4615C32.2295 26.8711 37.0395 27.1204 46.0249 27.7433L60.0088 57.7088C50.7337 57.7088 45.5888 57.6061 37.3771 59.8982L36.9689 60.0122L22.985 30.0466Z" fill="#72ADF7"/>
<path d="M22.7838 29.8466C22.7838 29.8466 16.9462 31.8518 24.4872 29.2615C32.0283 26.6711 37.2124 25.9386 46.1978 26.5615L60.1817 56.527C50.9066 56.527 45.3876 57.4061 37.176 59.6982L36.7678 59.8121L22.7838 29.8466Z" fill="#D1E5FE"/>
<path d="M47.329 25.2686C47.329 25.2686 37.6189 28.7723 45.16 26.1819C52.701 23.5915 33.1985 29.5995 22.4707 29.5995L36.4546 59.565C46.5824 56.8691 49.9074 56.0787 55.8799 55.923C57.7102 55.8753 59.5349 55.6707 61.313 55.2341L47.329 25.2686Z" fill="white"/>
<path d="M22.2715 29.2544L23.9749 28.6693C31.6822 25.4604 38.2015 22.524 47.1869 23.1468L60.8183 53.3729C51.437 54.7269 44.0325 54.5642 37.0239 58.88C36.7846 59.0273 36.526 59.1444 36.2554 59.22L22.2715 29.2544Z" fill="white"/>
<path d="M5.91659 43.8402L7.11067 38.3888L10.6234 41.6197L12.6418 35.1018L16.4491 39.5293L18.9891 32.1865" stroke="#5AA3FF" stroke-linecap="round" stroke-linejoin="round"/>
<rect width="8.89907" height="2.31866" rx="1.15933" transform="matrix(0.971399 -0.237453 0.175033 0.984563 7.17987 47.7689)" fill="#CFE4FC"/>
<rect width="11.2272" height="2.31866" rx="1.15933" transform="matrix(0.971399 -0.237453 0.175033 0.984563 38.5449 39.4443)" fill="#D1E5FE"/>
<rect width="19.6395" height="2.31866" rx="1.15933" transform="matrix(0.971399 -0.237453 0.175033 0.984563 8.8457 52.3616)" fill="#D1E5FE"/>
<rect width="17.4295" height="2.31866" rx="1.15933" transform="matrix(0.971399 -0.237453 0.175033 0.984563 11.0859 56.8693)" fill="#D1E5FE"/>
<rect width="14.2117" height="2.31866" rx="1.15933" transform="matrix(0.971399 -0.237453 0.175033 0.984563 37.7168 44.1741)" fill="#D1E5FE"/>
<rect width="11.0687" height="2.31866" rx="1.15933" transform="matrix(0.971399 -0.237453 0.175033 0.984563 42.832 47.958)" fill="#D1E5FE"/>
<g clip-path="url(#clip0_2_235)">
<rect width="7.95948" height="7.95948" rx="3.97974" transform="matrix(0.966235 -0.257663 0.485643 0.874157 34.7812 27.9524)" fill="white"/>
<path d="M42.4027 29.5384C42.1416 29.0685 41.6785 28.7036 41.1414 28.4936C40.6038 28.2835 39.9916 28.2279 39.4323 28.3771C38.8729 28.5262 38.4725 28.8518 38.277 29.2575C38.0817 29.6627 38.0912 30.1486 38.3522 30.6185C38.6133 31.0884 39.0764 31.4532 39.6135 31.6632C40.1511 31.8734 40.7633 31.9289 41.3226 31.7798C41.882 31.6306 42.2825 31.305 42.4779 30.8993C42.5786 30.6913 42.6237 30.464 42.6108 30.2305C42.5979 29.9969 42.5271 29.7617 42.4027 29.5384ZM39.8376 34.1292C40.0266 34.4694 41.127 34.5667 42.6459 34.1616C44.0709 33.7817 44.8871 33.1733 44.6981 32.833C44.32 32.1525 42.9885 31.7262 41.5117 32.12C39.9928 32.5251 39.4595 33.4486 39.8376 34.1292Z" fill="#5AA3FF"/>
</g>
</g>
<circle cx="56.6879" cy="14.2174" r="12.4185" fill="#B9660C"/>
<circle cx="54.9086" cy="12.7516" r="12.4185" fill="#FF931E"/>
<circle cx="54.9098" cy="12.7516" r="9.86308" fill="#FFC85A"/>
<path d="M59.0752 8.12183L53.9403 10.2263C53.588 10.3655 53.268 10.5755 53.0001 10.8434C52.7322 11.1112 52.5222 11.4313 52.383 11.7836L50.2786 16.9185C50.244 17.0064 50.2456 17.1044 50.2831 17.1912C50.3206 17.2779 50.3908 17.3463 50.4785 17.3815C50.5634 17.4129 50.6567 17.4129 50.7416 17.3815L55.8764 15.277C56.2288 15.1378 56.5488 14.9278 56.8167 14.6599C57.0846 14.3921 57.2946 14.072 57.4337 13.7197L59.5382 8.58482C59.5728 8.49688 59.5712 8.39885 59.5337 8.31211C59.4962 8.22537 59.426 8.15697 59.3383 8.12183C59.2534 8.09041 59.1601 8.09041 59.0752 8.12183ZM54.9294 13.7828C54.7213 13.7828 54.5179 13.7211 54.3449 13.6055C54.1718 13.4899 54.0369 13.3255 53.9573 13.1333C53.8777 12.941 53.8568 12.7294 53.8974 12.5253C53.938 12.3212 54.0382 12.1337 54.1854 11.9866C54.3326 11.8394 54.52 11.7392 54.7242 11.6986C54.9283 11.658 55.1398 11.6788 55.3321 11.7585C55.5244 11.8381 55.6887 11.973 55.8043 12.146C55.92 12.3191 55.9817 12.5225 55.9817 12.7306C55.9817 13.0097 55.8708 13.2773 55.6735 13.4746C55.4761 13.672 55.2085 13.7828 54.9294 13.7828Z" fill="#B9660C"/>
<defs>
<linearGradient id="paint0_linear_2_235" x1="32.0447" y1="8.9845" x2="32.0447" y2="60.9248" gradientUnits="userSpaceOnUse">
<stop stop-color="#90C9F9"/>
<stop offset="1" stop-color="#B6D9FA"/>
</linearGradient>
<clipPath id="clip0_2_235">
<rect width="7.95948" height="7.95948" rx="3.97974" transform="matrix(0.966235 -0.257663 0.485643 0.874157 34.7812 27.9524)" fill="white"/>
</clipPath>
</defs>
</svg>
