<svg width="72" height="72" viewBox="0 0 72 72" fill="none" xmlns="http://www.w3.org/2000/svg">
<path d="M34.5 6.5C35.9094 6.5 37.3588 7.21593 38.4785 8.72754L38.4805 8.73047L41.5098 12.75C43.7827 15.7806 47.7454 16.0921 50.4209 13.501L50.6758 13.2412C52.7138 11.0555 54.5094 10.13 55.8896 10.1299C56.7429 10.1299 57.4732 10.4985 58.0469 11.2285L58.0537 11.2373C59.0794 13.4414 59.5 16.5832 59.5 21.1201V50.8799C59.5 55.4273 59.0777 58.5735 58.0469 60.7783L58.0225 60.8291C57.4588 61.5312 56.7415 61.8701 55.8896 61.8701C54.5956 61.87 52.9364 61.057 51.0547 59.1543L50.6758 58.7588C48.0032 55.8908 43.8571 56.1216 41.5107 59.249L38.4805 63.2686L38.4785 63.2725C37.3588 64.7841 35.9094 65.5 34.5 65.5C33.0906 65.5 31.6412 64.7841 30.5215 63.2725L30.5186 63.2686L27.459 59.2188C25.2136 56.2165 21.282 55.9104 18.6104 58.4707L18.3662 58.7168L18.3242 58.7588C16.6609 60.5398 15.1469 61.5021 13.8945 61.7891C12.6982 62.0631 11.7193 61.7299 10.9756 60.8262L10.9531 60.7783C9.92229 58.5735 9.5 55.4273 9.5 50.8799V21.1201C9.5 16.5835 9.9198 13.4414 10.9453 11.2373L10.9541 11.2275C11.6859 10.2905 12.672 9.94106 13.8848 10.2148C15.1403 10.4983 16.6614 11.4607 18.3242 13.2412L18.3662 13.2832V13.2822C21.0377 16.1059 25.1462 15.8765 27.4609 12.7793L27.46 12.7783L30.5186 8.73145L30.5215 8.72754C31.6412 7.21593 33.0906 6.5 34.5 6.5ZM24 38.5C22.4939 38.5 21.25 39.7439 21.25 41.25C21.25 42.7561 22.4939 44 24 44H42C43.5061 44 44.75 42.7561 44.75 41.25C44.75 39.7439 43.5061 38.5 42 38.5H24ZM24 28C22.4939 28 21.25 29.2439 21.25 30.75C21.25 32.2561 22.4939 33.5 24 33.5H48C49.5061 33.5 50.75 32.2561 50.75 30.75C50.75 29.2439 49.5061 28 48 28H24Z" fill="#FC9B4C" stroke="#FC9B4C"/>
</svg>
