<svg width="32" height="32" viewBox="0 0 32 32" fill="none" xmlns="http://www.w3.org/2000/svg">
<path d="M10.9595 3.16666H21.0396C23.5588 3.16666 24.927 3.51531 25.7095 4.35318C26.5028 5.20285 26.8265 6.69124 26.8198 9.38541V24.3864C26.8198 25.2331 26.7034 25.8815 26.5171 26.3405C26.3314 26.7979 26.092 27.0334 25.8579 27.1344C25.6276 27.2337 25.311 27.2428 24.8853 27.0592C24.5082 26.8966 24.0696 26.5915 23.5874 26.1139L23.3784 25.8981C22.7379 25.2111 21.9067 24.8753 21.0757 24.9206C20.2966 24.9631 19.5546 25.339 19.0015 26.0036L18.8931 26.1403L17.5474 27.9381C17.0877 28.5452 16.5213 28.8101 15.9937 28.8102C15.5318 28.8102 15.0395 28.6075 14.6157 28.1501L14.439 27.9381L13.0933 26.1403C11.9621 24.6272 9.93816 24.5139 8.6333 25.8864L8.60693 25.9128C8.04564 26.5152 7.53587 26.8863 7.10596 27.0719C6.68102 27.2553 6.36389 27.2469 6.13232 27.1471C5.89717 27.0457 5.65658 26.8102 5.47021 26.3532C5.28313 25.8943 5.16651 25.2463 5.1665 24.4001V9.38638C5.16653 6.69226 5.49326 5.20329 6.28857 4.35318C7.07281 3.51506 8.44088 3.16669 10.9595 3.16666ZM11.9995 13.1667C11.1768 13.1668 10.4995 13.844 10.4995 14.6667C10.4995 15.4894 11.1768 16.1665 11.9995 16.1667H19.9995C20.8223 16.1667 21.4995 15.4895 21.4995 14.6667C21.4995 13.8438 20.8223 13.1667 19.9995 13.1667H11.9995ZM10.6665 7.83365C9.84369 7.83365 9.1665 8.51084 9.1665 9.33365C9.16668 10.1563 9.8438 10.8336 10.6665 10.8336H21.3335C22.1561 10.8335 22.8333 10.1562 22.8335 9.33365C22.8335 8.51095 22.1562 7.83383 21.3335 7.83365H10.6665Z" fill="#757C98" stroke="#757C98"/>
</svg>
