<svg width="32" height="32" viewBox="0 0 32 32" fill="none" xmlns="http://www.w3.org/2000/svg">
<path d="M10.9596 3.16699H21.0397C23.5589 3.16699 24.9272 3.51564 25.7096 4.35352C26.503 5.20319 26.8267 6.69157 26.82 9.38574V24.3867C26.82 25.2334 26.7035 25.8818 26.5173 26.3408C26.3316 26.7982 26.0921 27.0337 25.8581 27.1348C25.6277 27.234 25.3112 27.2432 24.8854 27.0596C24.5084 26.897 24.0697 26.5918 23.5876 26.1143L23.3786 25.8984C22.738 25.2115 21.9069 24.8756 21.0758 24.9209C20.2967 24.9634 19.5547 25.3393 19.0016 26.0039L18.8932 26.1406L17.5475 27.9385C17.0879 28.5455 16.5214 28.8104 15.9938 28.8105C15.532 28.8105 15.0397 28.6079 14.6159 28.1504L14.4391 27.9385L13.0934 26.1406C11.9622 24.6276 9.93832 24.5142 8.63346 25.8867L8.60709 25.9131C8.0458 26.5155 7.53603 26.8866 7.10612 27.0723C6.68118 27.2557 6.36405 27.2472 6.13248 27.1475C5.89733 27.046 5.65674 26.8105 5.47038 26.3535C5.28329 25.8947 5.16667 25.2466 5.16666 24.4004V9.38672C5.16669 6.6926 5.49342 5.20363 6.28873 4.35352C7.07297 3.5154 8.44104 3.16703 10.9596 3.16699ZM11.9997 13.167C11.177 13.1672 10.4997 13.8443 10.4997 14.667C10.4997 15.4897 11.177 16.1668 11.9997 16.167H19.9997C20.8225 16.167 21.4997 15.4898 21.4997 14.667C21.4997 13.8442 20.8225 13.167 19.9997 13.167H11.9997ZM10.6667 7.83398C9.84386 7.83398 9.16666 8.51118 9.16666 9.33398C9.16684 10.1566 9.84396 10.834 10.6667 10.834H21.3337C22.1562 10.8338 22.8335 10.1565 22.8337 9.33398C22.8337 8.51128 22.1563 7.83416 21.3337 7.83398H10.6667Z" fill="#09093C" stroke="#09093C"/>
</svg>
