<svg width="62" height="62" viewBox="0 0 62 62" fill="none" xmlns="http://www.w3.org/2000/svg">
<rect width="62" height="62" rx="31" fill="#0268FB"/>
<path d="M31.0083 13.8294C31.5495 13.8294 32.072 13.8967 32.48 14.0188L32.647 14.0745L42.269 17.678C43.0741 17.9853 43.8334 18.6276 44.3911 19.4378C44.9493 20.2488 45.2777 21.1874 45.27 22.053V36.2327C45.27 36.8429 45.0663 37.5835 44.7163 38.2835C44.3663 38.9834 43.8946 39.5932 43.4038 39.9632L33.7808 47.1546L33.7788 47.1555C33.0318 47.7176 32.0225 48.013 30.9907 48.013C29.9589 48.0129 28.9496 47.7177 28.2026 47.1555L28.2017 47.1546L18.5767 39.9622L18.5747 39.9602L18.3931 39.8138C17.9718 39.447 17.5726 38.906 17.2661 38.2913C16.9161 37.5891 16.7124 36.8433 16.7124 36.2327V22.0579C16.7124 21.1906 17.0455 20.2509 17.6079 19.4397C18.1702 18.6287 18.934 17.9855 19.7485 17.678L19.7476 17.677L29.3696 14.0735L29.3706 14.0745C29.7972 13.9174 30.3903 13.8294 31.0083 13.8294ZM37.4614 24.7835C36.7588 24.0808 35.6017 24.081 34.8989 24.7835L28.6548 31.0276L27.1187 29.4915C26.4159 28.7887 25.2589 28.7887 24.5562 29.4915C23.8536 30.1941 23.8538 31.3503 24.5562 32.053L27.354 34.886L27.356 34.8889C27.7171 35.2501 28.1793 35.4201 28.6372 35.4202C29.0951 35.4202 29.5573 35.25 29.9185 34.8889L37.4429 27.3626C38.1639 26.6588 38.1631 25.4852 37.4614 24.7835Z" fill="white" stroke="white"/>
</svg>
