<svg width="24" height="25" viewBox="0 0 24 25" fill="none" xmlns="http://www.w3.org/2000/svg">
<path d="M7 4.5H17C18.4234 4.5 19.5335 4.85572 20.2852 5.55371C21.0301 6.24547 21.5 7.34538 21.5 9V16C21.5 17.6546 21.0301 18.7545 20.2852 19.4463C19.5335 20.1443 18.4234 20.5 17 20.5H7C5.57665 20.5 4.46652 20.1443 3.71484 19.4463C2.96994 18.7545 2.5 17.6546 2.5 16V9C2.5 7.34538 2.96994 6.24547 3.71484 5.55371C4.46652 4.85572 5.57665 4.5 7 4.5ZM17.9668 8.71484C17.5387 8.16607 16.7458 8.09326 16.2178 8.51953L13.0879 11.0195L13.0869 11.0205C12.8116 11.2413 12.4159 11.3672 11.9951 11.3672C11.5744 11.3672 11.1786 11.2413 10.9033 11.0205L10.9023 11.0195L7.77246 8.51953C7.22753 8.07941 6.44601 8.19235 6.02148 8.71484L6.01562 8.72266C5.59988 9.25534 5.68162 10.0453 6.21484 10.4785L6.21777 10.4805L9.34375 12.9766V12.9775C10.0957 13.5907 11.0625 13.8799 12 13.8799C12.9395 13.8799 13.8933 13.5897 14.6523 12.9805L17.7822 10.4805L17.7852 10.4785C18.3148 10.0482 18.4001 9.26297 17.9775 8.72852H17.9785C17.9768 8.72621 17.9744 8.72397 17.9727 8.72168C17.9709 8.71952 17.9695 8.717 17.9678 8.71484H17.9668Z" fill="#09093C" stroke="#09093C"/>
</svg>
