<svg width="36" height="36" viewBox="0 0 36 36" fill="none" xmlns="http://www.w3.org/2000/svg">
<path d="M16.123 1.64603C17.1638 0.774814 18.8629 0.780504 19.8799 1.64993L22.6436 4.02884C22.9651 4.30721 23.4035 4.5389 23.8389 4.70071C24.2747 4.86266 24.7559 4.97216 25.1748 4.9722H28.1504C29.7291 4.97239 31.0273 6.27139 31.0273 7.85013V10.8247C31.0273 11.2518 31.1372 11.7332 31.2998 12.1685C31.462 12.6026 31.6938 13.0348 31.9707 13.355V13.356L34.3496 16.1187V16.1197C35.221 17.1388 35.2229 18.8566 34.3682 19.8784L31.9893 22.6421C31.7104 22.9639 31.4794 23.4034 31.3174 23.8394C31.1554 24.2753 31.0449 24.7564 31.0449 25.1753V28.1499C31.0449 29.7286 29.7466 31.0276 28.168 31.0279H25.1924C24.7655 31.0279 24.2847 31.1368 23.8496 31.2993C23.4149 31.4618 22.9815 31.6939 22.6611 31.9712L19.8975 34.3501C18.9221 35.1698 17.3656 35.2179 16.3359 34.5034L16.1377 34.3501L13.374 31.9712C13.0525 31.6928 12.6141 31.4612 12.1787 31.2993C11.7429 31.1374 11.2617 31.0279 10.8428 31.0279H7.81543C6.23657 31.0279 4.9375 29.7288 4.9375 28.1499V25.1577C4.9375 24.7386 4.82729 24.2621 4.66797 23.8316C4.50831 23.4003 4.28224 22.9687 4.0166 22.6499L4.01367 22.646L1.65039 19.8638C0.794201 18.8427 0.793893 17.1562 1.65039 16.1353L1.65137 16.1363L4.01367 13.354L4.0166 13.3501C4.28224 13.0314 4.50831 12.5998 4.66797 12.1685C4.8273 11.738 4.9375 11.2615 4.9375 10.8423V7.85013C4.9375 6.27127 6.23657 4.9722 7.81543 4.9722H10.8428C11.2614 4.97216 11.7415 4.86261 12.1758 4.70364C12.6105 4.54449 13.047 4.31806 13.3672 4.0513H13.3682L13.376 4.04446L16.123 1.64603ZM25.6338 12.4839C24.931 11.7812 23.7741 11.7812 23.0713 12.4839L15.8994 19.6548L12.9463 16.7017C12.2435 15.9989 11.0866 15.9989 10.3838 16.7017C9.68133 17.4044 9.68137 18.5605 10.3838 19.2632L14.6191 23.4986C14.9568 23.8362 15.4163 24.0298 15.9004 24.0298C16.3843 24.0297 16.8431 23.836 17.1807 23.4986L25.6338 15.0464C26.3365 14.3437 26.3365 13.1867 25.6338 12.4839Z" fill="white" stroke="white"/>
</svg>
