<svg width="20" height="20" viewBox="0 0 20 20" fill="none" xmlns="http://www.w3.org/2000/svg">
<path d="M19.98 9.41001C19.64 3.61001 14.37 -0.859977 8.30004 0.140023C4.12004 0.830023 0.770048 4.22 0.120049 8.4C-0.259951 10.82 0.24007 13.11 1.33007 15L0.440056 18.31C0.240056 19.06 0.930036 19.74 1.67004 19.53L4.93005 18.63C6.41005 19.5 8.14004 20 9.99004 20C15.63 20 20.31 15.03 19.98 9.41001ZM14.8801 13.72C14.7901 13.9 14.68 14.07 14.54 14.23C14.29 14.5 14.02 14.7 13.72 14.82C13.42 14.95 13.09 15.01 12.74 15.01C12.23 15.01 11.68 14.89 11.11 14.64C10.53 14.39 9.96007 14.06 9.39007 13.65C8.81007 13.23 8.27005 12.76 7.75005 12.25C7.23005 11.73 6.77003 11.18 6.35003 10.61C5.94003 10.04 5.61005 9.47 5.37005 8.9C5.13005 8.33 5.01006 7.78002 5.01006 7.26002C5.01006 6.92002 5.07006 6.59002 5.19006 6.29002C5.31006 5.98002 5.50007 5.70002 5.77007 5.45002C6.09007 5.13002 6.44005 4.98002 6.81005 4.98002C6.95005 4.98002 7.09002 5.01002 7.22002 5.07002C7.35002 5.13002 7.47005 5.22001 7.56005 5.35001L8.72002 6.99C8.81002 7.12 8.88004 7.23 8.92004 7.34C8.97004 7.45 8.99004 7.55 8.99004 7.65C8.99004 7.77 8.95006 7.89002 8.88006 8.01002C8.81006 8.13002 8.72003 8.25 8.60003 8.37L8.22002 8.77C8.16002 8.83 8.14007 8.89001 8.14007 8.97001C8.14007 9.01001 8.15003 9.05 8.16003 9.09C8.18003 9.13 8.19007 9.16001 8.20007 9.19001C8.29007 9.36001 8.45004 9.56999 8.67004 9.83C8.90004 10.09 9.14008 10.36 9.40008 10.62C9.67008 10.89 9.93007 11.13 10.2001 11.36C10.4601 11.58 10.68 11.73 10.85 11.82C10.88 11.83 10.9101 11.85 10.9401 11.86C10.9801 11.88 11.0201 11.88 11.0701 11.88C11.1601 11.88 11.2201 11.85 11.2801 11.79L11.66 11.41C11.79 11.28 11.9101 11.19 12.0201 11.13C12.1401 11.06 12.2501 11.02 12.3801 11.02C12.4801 11.02 12.5801 11.04 12.6901 11.09C12.8001 11.14 12.92 11.2 13.04 11.29L14.7001 12.47C14.8301 12.56 14.92 12.67 14.98 12.79C15.03 12.92 15.0601 13.04 15.0601 13.18C15.0001 13.35 14.9601 13.54 14.8801 13.72Z" fill="white"/>
</svg>
